<svg width="20" height="19" viewBox="0 0 20 19" fill="none" xmlns="http://www.w3.org/2000/svg">
<path d="M2.50089 6.53124C2.5008 5.84234 2.68096 5.16422 3.02518 4.55788C3.36939 3.95153 3.86685 3.43598 4.47283 3.05759C5.0788 2.67919 5.77428 2.44983 6.49672 2.39012C7.21915 2.33042 7.94587 2.44224 8.61152 2.71554C9.27718 2.98884 9.86088 3.41504 10.3101 3.9558C10.7594 4.49657 11.0601 5.13495 11.1853 5.81352C11.3104 6.49208 11.256 7.18956 11.027 7.84321C10.798 8.49686 10.4016 9.08618 9.87339 9.55818C10.8694 10.0173 11.7342 10.6979 12.3944 11.5421C13.0546 12.3864 13.4907 13.3694 13.6659 14.4079C13.6852 14.5235 13.6803 14.6415 13.6516 14.7553C13.6229 14.8691 13.5708 14.9763 13.4985 15.071C13.4261 15.1657 13.3348 15.2459 13.2298 15.307C13.1248 15.3682 13.0082 15.4091 12.8865 15.4274C12.7649 15.4457 12.6406 15.4411 12.5209 15.4138C12.4011 15.3865 12.2882 15.3371 12.1885 15.2683C12.0889 15.1996 12.0045 15.1129 11.9401 15.0131C11.8757 14.9134 11.8327 14.8025 11.8134 14.687C11.6259 13.5711 11.0258 12.5553 10.1208 11.8219C9.21589 11.0885 8.06537 10.6857 6.87589 10.6857C5.68641 10.6857 4.53588 11.0885 3.63093 11.8219C2.72598 12.5553 2.12587 13.5711 1.93839 14.687C1.91902 14.8025 1.87588 14.9133 1.81144 15.0131C1.74699 15.1128 1.66251 15.1995 1.5628 15.2682C1.46309 15.3369 1.35012 15.3862 1.23033 15.4134C1.11054 15.4407 0.986276 15.4452 0.864639 15.4268C0.743003 15.4084 0.626372 15.3674 0.521407 15.3062C0.416441 15.245 0.325197 15.1647 0.252884 15.07C0.18057 14.9753 0.128603 14.8679 0.0999503 14.7541C0.0712974 14.6403 0.0665195 14.5223 0.0858895 14.4067C0.261308 13.3687 0.697608 12.386 1.3578 11.5422C2.018 10.6984 2.88263 10.0182 3.87839 9.55937C3.44298 9.17097 3.09608 8.70184 2.85914 8.18099C2.62221 7.66014 2.50027 7.09865 2.50089 6.53124ZM13.7509 4.74999C14.4772 4.75048 15.1877 4.95123 15.7962 5.32789C16.4046 5.70455 16.885 6.24091 17.1788 6.87188C17.4726 7.50284 17.5673 8.20127 17.4514 8.88238C17.3355 9.56349 17.014 10.198 16.5259 10.7089C17.2867 11.0677 17.9628 11.5699 18.5129 12.1847C19.063 12.7996 19.4757 13.5144 19.7259 14.2856C19.7754 14.4353 19.7824 14.5948 19.7461 14.7479C19.7098 14.901 19.6315 15.0423 19.5191 15.1573C19.4068 15.2724 19.2644 15.3571 19.1064 15.403C18.9484 15.4489 18.7805 15.4542 18.6196 15.4185C18.4589 15.3829 18.3109 15.3078 18.1904 15.2007C18.07 15.0935 17.9813 14.9581 17.9334 14.8081C17.7094 14.1196 17.3011 13.4981 16.7485 13.0044C16.196 12.5107 15.518 12.1616 14.7809 11.9914C14.5762 11.9444 14.3941 11.8334 14.2639 11.6761C14.1338 11.5189 14.0631 11.3245 14.0634 11.1245V10.7065C14.0633 10.5407 14.1119 10.3781 14.2038 10.2371C14.2956 10.0962 14.4271 9.98234 14.5834 9.90849C14.9623 9.73008 15.2667 9.43519 15.4469 9.07172C15.6272 8.70825 15.6728 8.29756 15.5764 7.90635C15.48 7.51514 15.2471 7.1664 14.9157 6.91676C14.5843 6.66713 14.1738 6.53127 13.7509 6.53124C13.5022 6.53124 13.2638 6.43741 13.088 6.27039C12.9122 6.10336 12.8134 5.87683 12.8134 5.64062C12.8134 5.40441 12.9122 5.17788 13.088 5.01085C13.2638 4.84383 13.5022 4.74999 13.7509 4.74999ZM6.87589 4.15624C6.54297 4.14909 6.21189 4.2052 5.90211 4.32127C5.59232 4.43735 5.31007 4.61104 5.07192 4.83217C4.83377 5.0533 4.64453 5.3174 4.5153 5.60896C4.38607 5.90053 4.31945 6.21368 4.31937 6.53004C4.31929 6.8464 4.38573 7.15959 4.51481 7.45121C4.64389 7.74284 4.833 8.00703 5.07103 8.22827C5.30906 8.44951 5.59122 8.62334 5.90095 8.73956C6.21067 8.85578 6.54171 8.91205 6.87464 8.90506C7.52784 8.89133 8.14943 8.63523 8.60635 8.19156C9.06327 7.74789 9.31921 7.15192 9.31937 6.53123C9.31953 5.91054 9.06391 5.31445 8.60723 4.87056C8.15054 4.42668 7.52908 4.17028 6.87589 4.15624Z" fill="#999999"/>
</svg>
