<svg width="148" height="148" viewBox="0 0 148 148" fill="none" xmlns="http://www.w3.org/2000/svg">
<circle cx="74" cy="74" r="71.5" stroke="white" stroke-width="5"/>
<path d="M100.812 56.377H86.0656C82.901 56.377 79.8072 57.2857 77.1453 59.0002L74 61.0176L70.8547 59.0002C68.1954 57.2861 65.0982 56.3753 61.9344 56.377H47.1875C46.0467 56.377 45.125 57.2986 45.125 58.4395V95.0488C45.125 96.1897 46.0467 97.1113 47.1875 97.1113H61.9344C65.099 97.1113 68.1928 98.0201 70.8547 99.7346L73.7164 101.578C73.8002 101.629 73.8969 101.662 73.9936 101.662C74.0902 101.662 74.1869 101.636 74.2707 101.578L77.1324 99.7346C79.8008 98.0201 82.901 97.1113 86.0656 97.1113H100.812C101.953 97.1113 102.875 96.1897 102.875 95.0488V58.4395C102.875 57.2986 101.953 56.377 100.812 56.377ZM61.9344 92.4707H49.7656V61.0176H61.9344C64.216 61.0176 66.4332 61.6686 68.3475 62.8996L71.4928 64.917L71.9375 65.207V94.9844C68.8695 93.3344 65.4406 92.4707 61.9344 92.4707ZM98.2344 92.4707H86.0656C82.5594 92.4707 79.1305 93.3344 76.0625 94.9844V65.207L76.5072 64.917L79.6525 62.8996C81.5668 61.6686 83.784 61.0176 86.0656 61.0176H98.2344V92.4707ZM66.5814 69.2676H54.6061C54.3547 69.2676 54.1484 69.4867 54.1484 69.751V72.6514C54.1484 72.9156 54.3547 73.1348 54.6061 73.1348H66.575C66.8264 73.1348 67.0326 72.9156 67.0326 72.6514V69.751C67.0391 69.4867 66.8328 69.2676 66.5814 69.2676ZM80.9609 69.751V72.6514C80.9609 72.9156 81.1672 73.1348 81.4186 73.1348H93.3875C93.6389 73.1348 93.8451 72.9156 93.8451 72.6514V69.751C93.8451 69.4867 93.6389 69.2676 93.3875 69.2676H81.4186C81.1672 69.2676 80.9609 69.4867 80.9609 69.751ZM66.5814 78.291H54.6061C54.3547 78.291 54.1484 78.5102 54.1484 78.7744V81.6748C54.1484 81.9391 54.3547 82.1582 54.6061 82.1582H66.575C66.8264 82.1582 67.0326 81.9391 67.0326 81.6748V78.7744C67.0391 78.5102 66.8328 78.291 66.5814 78.291ZM93.3939 78.291H81.4186C81.1672 78.291 80.9609 78.5102 80.9609 78.7744V81.6748C80.9609 81.9391 81.1672 82.1582 81.4186 82.1582H93.3875C93.6389 82.1582 93.8451 81.9391 93.8451 81.6748V78.7744C93.8516 78.5102 93.6453 78.291 93.3939 78.291Z" fill="white"/>
</svg>
