<svg width="525" height="204" viewBox="0 0 525 204" fill="none" xmlns="http://www.w3.org/2000/svg">
<path d="M42.754 189.137C37.7283 189.137 33.1846 188.277 29.1228 186.556C25.1297 184.836 21.9629 182.359 19.6222 179.125C17.2814 175.891 16.0767 172.072 16.0078 167.669H31.4979C31.7044 170.627 32.7371 172.967 34.5959 174.687C36.5237 176.407 39.1397 177.267 42.4442 177.267C45.8178 177.267 48.4681 176.476 50.3958 174.893C52.3236 173.242 53.2873 171.109 53.2873 168.494C53.2873 166.361 52.6334 164.607 51.3252 163.23C50.0171 161.854 48.3648 160.788 46.3684 160.031C44.4406 159.205 41.7557 158.311 38.3136 157.347C33.6321 155.971 29.8112 154.63 26.8509 153.322C23.9594 151.946 21.4466 149.916 19.3124 147.233C17.247 144.48 16.2143 140.833 16.2143 136.292C16.2143 132.026 17.2814 128.31 19.4156 125.145C21.5498 121.98 24.5446 119.572 28.3999 117.92C32.2552 116.2 36.6613 115.34 41.6181 115.34C49.0534 115.34 55.0772 117.164 59.6899 120.81C64.3712 124.388 66.9529 129.411 67.4349 135.879H51.5318C51.3942 133.402 50.3269 131.372 48.3305 129.79C46.4027 128.138 43.821 127.313 40.5854 127.313C37.7629 127.313 35.491 128.035 33.7698 129.48C32.1175 130.925 31.2914 133.024 31.2914 135.776C31.2914 137.703 31.911 139.32 33.1502 140.627C34.4583 141.866 36.0417 142.898 37.9005 143.723C39.8283 144.48 42.5132 145.375 45.9553 146.407C50.6367 147.783 54.4576 149.159 57.418 150.535C60.3785 151.911 62.9255 153.976 65.0598 156.728C67.1941 159.481 68.2611 163.093 68.2611 167.565C68.2611 171.419 67.2627 174.997 65.2663 178.299C63.2699 181.602 60.3438 184.251 56.4886 186.247C52.6334 188.174 48.055 189.137 42.754 189.137ZM133.978 158.586C133.978 160.65 133.84 162.508 133.565 164.159H91.7416C92.0857 168.288 93.5314 171.522 96.0788 173.861C98.6258 176.201 101.758 177.371 105.476 177.371C110.846 177.371 114.667 175.066 116.939 170.455H132.532C130.88 175.96 127.713 180.501 123.032 184.079C118.35 187.589 112.602 189.343 105.786 189.343C100.278 189.343 95.3213 188.139 90.9154 185.731C86.5782 183.254 83.1704 179.779 80.692 175.306C78.2822 170.834 77.0776 165.673 77.0776 159.824C77.0776 153.907 78.2822 148.712 80.692 144.239C83.1014 139.767 86.4749 136.326 90.8122 133.918C95.1494 131.51 100.141 130.306 105.786 130.306C111.224 130.306 116.078 131.475 120.347 133.815C124.684 136.155 128.023 139.492 130.364 143.827C132.773 148.093 133.978 153.012 133.978 158.586ZM119.004 154.457C118.935 150.742 117.593 147.783 114.977 145.581C112.36 143.311 109.159 142.175 105.373 142.175C101.793 142.175 98.7637 143.276 96.2853 145.478C93.8755 147.611 92.3955 150.604 91.8448 154.457H119.004ZM140.813 159.618C140.813 153.838 141.949 148.712 144.221 144.239C146.561 139.767 149.694 136.326 153.618 133.918C157.611 131.51 162.051 130.306 166.94 130.306C171.208 130.306 174.925 131.166 178.092 132.886C181.328 134.606 183.91 136.774 185.838 139.388V131.235H200.398V188.414H185.838V180.054C183.979 182.738 181.397 184.974 178.092 186.763C174.857 188.483 171.105 189.343 166.836 189.343C162.017 189.343 157.611 188.105 153.618 185.628C149.694 183.15 146.561 179.676 144.221 175.203C141.949 170.662 140.813 165.467 140.813 159.618ZM185.838 159.824C185.838 156.315 185.149 153.322 183.772 150.845C182.395 148.299 180.536 146.373 178.196 145.065C175.855 143.689 173.342 143.001 170.657 143.001C167.972 143.001 165.494 143.654 163.222 144.962C160.95 146.269 159.091 148.196 157.646 150.742C156.268 153.219 155.58 156.178 155.58 159.618C155.58 163.058 156.268 166.086 157.646 168.701C159.091 171.247 160.95 173.208 163.222 174.584C165.562 175.96 168.041 176.648 170.657 176.648C173.342 176.648 175.855 175.995 178.196 174.687C180.536 173.311 182.395 171.384 183.772 168.907C185.149 166.361 185.838 163.334 185.838 159.824ZM228.976 140.111C230.834 137.084 233.244 134.71 236.204 132.989C239.234 131.269 242.676 130.409 246.531 130.409V145.581H242.71C238.166 145.581 234.724 146.648 232.383 148.781C230.111 150.914 228.976 154.63 228.976 159.928V188.414H214.518V131.235H228.976V140.111ZM252.551 159.824C252.551 153.907 253.756 148.746 256.166 144.343C258.575 139.87 261.914 136.43 266.183 134.021C270.451 131.544 275.339 130.306 280.847 130.306C287.938 130.306 293.789 132.095 298.402 135.673C303.083 139.182 306.216 144.136 307.799 150.535H292.206C291.38 148.058 289.968 146.132 287.972 144.756C286.044 143.311 283.635 142.588 280.743 142.588C276.613 142.588 273.342 144.102 270.933 147.129C268.523 150.088 267.319 154.32 267.319 159.824C267.319 165.26 268.523 169.492 270.933 172.52C273.342 175.478 276.613 176.958 280.743 176.958C286.595 176.958 290.416 174.343 292.206 169.114H307.799C306.216 175.306 303.083 180.226 298.402 183.873C293.721 187.52 287.869 189.343 280.847 189.343C275.339 189.343 270.451 188.139 266.183 185.731C261.914 183.254 258.575 179.813 256.166 175.41C253.756 170.937 252.551 165.742 252.551 159.824ZM350.608 130.409C354.947 130.409 358.804 131.372 362.176 133.299C365.551 135.157 368.164 137.943 370.025 141.659C371.952 145.306 372.915 149.71 372.915 154.87V188.414H358.458V156.831C358.458 152.29 357.321 148.815 355.051 146.407C352.778 143.93 349.68 142.691 345.757 142.691C341.764 142.691 338.597 143.93 336.256 146.407C333.984 148.815 332.848 152.29 332.848 156.831V188.414H318.391V112.037H332.848V138.356C334.707 135.879 337.185 133.953 340.284 132.576C343.382 131.131 346.824 130.409 350.608 130.409Z" fill="#FFBF1B"/>
<path d="M391.428 31.3158C388.063 46.696 389.539 59.9584 393.912 71.337C404.336 83.08 418.485 91.3037 433.178 99.2545C428.202 94.3835 423.486 89.5654 419.386 84.6393H443.352C445.099 82.5896 446.728 80.5295 448.221 78.4583H414.646C413.02 76.1315 411.558 73.7684 410.29 71.3471C409.624 70.0749 409.004 68.7789 408.432 67.4607H454.629C455.523 65.4473 456.282 63.4025 456.885 61.2797H406.214C405.081 57.2575 404.464 52.9687 404.499 48.2355H458.468C458.409 46.2682 458.236 44.2109 457.924 42.0438H404.901C405.296 38.7057 405.982 35.1424 407.015 31.3154L391.428 31.3158ZM462.408 31.3158C465.707 43.4995 465.569 52.9604 463.223 61.2801H463.171C462.114 65.6922 460.489 69.7878 458.447 73.6932C453.284 83.5607 445.241 92.2808 436.401 100.991C440.591 103.242 444.801 105.492 448.97 107.813C457.751 99.1579 466.317 89.891 472.309 78.4375C479.032 65.581 482.109 50.0109 478.016 31.3154L462.408 31.3158ZM420.024 115.265C413.343 122.281 407.063 129.932 402.302 138.977C395.295 152.293 392.079 168.731 395.915 188.414H410.906C409.253 181.087 408.779 174.242 409.253 167.907C409.406 165.437 409.707 163.076 410.158 160.806H410.21C410.622 158.718 411.149 156.654 411.79 154.624C411.797 154.601 411.804 154.576 411.811 154.553C412.781 151.49 414.011 148.516 415.488 145.664C420.401 136.161 427.27 128.682 434.051 121.911C429.415 119.682 424.705 117.503 420.024 115.265ZM435.663 122.697C440.407 127.509 444.822 132.353 448.537 137.436H428.23C426.653 139.415 425.159 141.47 423.784 143.617H452.615C453.09 144.428 453.544 145.251 453.981 146.077C455.422 148.818 456.656 151.651 457.644 154.625H418.26C417.543 156.603 416.943 158.666 416.461 160.807H459.279C460.076 164.833 460.437 169.145 460.243 173.851H415.2C415.245 175.852 415.391 177.912 415.65 180.032H459.698C459.348 182.698 458.829 185.488 458.139 188.414H473.522C476.651 172.334 475.078 158.421 470.573 146.605C461.227 136.071 448.796 129.085 435.663 122.698V122.697Z" fill="#FFBF1B"/>
<path d="M18.9219 76.1277C18.9219 68.9236 20.412 62.5162 23.3922 56.9053C26.4417 51.2252 30.7387 46.8265 36.2833 43.7094C41.8278 40.523 48.2041 38.9297 55.412 38.9297C64.5605 38.9297 72.2536 41.3888 78.4912 46.307C84.7288 51.1559 88.7486 57.7712 90.5506 66.1528H68.6149C67.2981 63.382 65.4615 61.2693 63.105 59.8146C60.8179 58.36 58.1496 57.6326 55.1001 57.6326C50.3872 57.6326 46.61 59.3298 43.7684 62.724C40.9961 66.0489 39.61 70.5168 39.61 76.1277C39.61 81.8079 40.9961 86.345 43.7684 89.7393C46.61 93.0642 50.3872 94.7267 55.1001 94.7267C58.1496 94.7267 60.8179 93.9994 63.105 92.5447C65.4615 91.09 67.2981 88.9773 68.6149 86.2065H90.5506C88.7486 94.5882 84.7288 101.238 78.4912 106.156C72.2536 111.005 64.5605 113.43 55.412 113.43C48.2041 113.43 41.8278 111.871 36.2833 108.754C30.7387 105.567 26.4417 101.169 23.3922 95.5579C20.412 89.8778 18.9219 83.4011 18.9219 76.1277ZM214.205 95.5579V112.91H205.368C190.467 112.91 183.017 105.533 183.017 90.7783V71.5559H175.844V54.6194H183.017V40.4883H203.497V54.6194H214.101V71.5559H203.497V91.09C203.497 92.6832 203.844 93.8262 204.537 94.5189C205.299 95.2116 206.546 95.5579 208.279 95.5579H214.205ZM270.333 75.2965C274.63 76.2663 278.026 78.4136 280.521 81.7386C283.086 84.9943 284.368 88.7348 284.368 92.9603C284.368 99.1946 282.219 104.078 277.922 107.611C273.625 111.144 267.596 112.91 259.833 112.91H223.551V39.6571H258.69C266.175 39.6571 272.031 41.3196 276.259 44.6445C280.556 47.9695 282.704 52.6452 282.704 58.6717C282.704 62.9664 281.561 66.5685 279.274 69.4778C277.056 72.3179 274.076 74.2574 270.333 75.2965ZM243.927 68.7505H254.219C259.348 68.7505 261.912 66.6377 261.912 62.4123C261.912 58.0483 259.348 55.8663 254.219 55.8663H243.927V68.7505ZM255.779 96.4931C260.907 96.4931 263.472 94.3457 263.472 90.051C263.472 87.8343 262.779 86.1372 261.393 84.9596C260.076 83.782 258.17 83.1932 255.675 83.1932H243.927V96.4931H255.779ZM303.59 49.2163C299.986 49.2163 297.075 48.2466 294.857 46.307C292.709 44.2982 291.634 41.8044 291.634 38.8258C291.634 35.778 292.709 33.2496 294.857 31.2408C297.075 29.232 299.986 28.2275 303.59 28.2275C307.124 28.2275 309.966 29.232 312.114 31.2408C314.332 33.2496 315.441 35.778 315.441 38.8258C315.441 41.8044 314.332 44.2982 312.114 46.307C309.966 48.2466 307.124 49.2163 303.59 49.2163ZM313.674 54.6194V112.91H293.298V54.6194H313.674ZM352.413 113.637C346.591 113.637 341.357 112.425 336.713 110.001C332.139 107.576 328.535 104.113 325.901 99.6102C323.268 95.1077 321.951 89.8085 321.951 83.7128C321.951 77.6863 323.268 72.4218 325.901 67.9192C328.604 63.4167 332.243 59.9532 336.817 57.5287C341.461 55.1043 346.695 53.8921 352.517 53.8921C358.339 53.8921 363.537 55.1043 368.111 57.5287C372.755 59.9532 376.393 63.4167 379.027 67.9192C381.73 72.4218 383.081 77.6863 383.081 83.7128C383.081 89.7393 381.73 95.0384 379.027 99.6102C376.393 104.113 372.755 107.576 368.111 110.001C363.467 112.425 358.235 113.637 352.413 113.637ZM352.413 95.9736C355.255 95.9736 357.611 94.9345 359.482 92.8564C361.423 90.709 362.393 87.6612 362.393 83.7128C362.393 79.7644 361.423 76.7511 359.482 74.673C357.611 72.5949 355.289 71.5559 352.517 71.5559C349.745 71.5559 347.423 72.5949 345.55 74.673C343.679 76.7511 342.743 79.7644 342.743 83.7128C342.743 87.7304 343.644 90.7783 345.446 92.8564C347.25 94.9345 349.571 95.9736 352.413 95.9736Z" fill="#FFBF1B"/>
<path fill-rule="evenodd" clip-rule="evenodd" d="M133.681 58.7336C127.633 58.7336 127.028 59.3747 123.899 59.3747C121.292 59.3747 113.462 52.9915 109.552 52.9915C105.637 52.9915 101.073 55.2909 101.073 61.9273V69.5851C101.081 71.5942 101.808 77.753 104.669 76.1072C101.289 80.1013 100.95 84.7611 100.995 89.2699C100.084 89.5314 99.1563 89.8296 98.2532 90.1357C95.4584 91.0913 92.4918 92.3084 91.1555 93.1743C90.4728 93.6152 89.9932 94.3089 89.8224 95.1034C89.6516 95.8976 89.8033 96.7271 90.2441 97.4094C90.6853 98.0917 91.3797 98.5711 92.1743 98.7418C92.9689 98.9129 93.7989 98.7612 94.4816 98.3203C95.1192 97.9078 97.4278 96.8909 100.235 95.9312L101.167 95.6247C101.355 97.3931 101.825 99.0144 102.523 100.485L102.425 100.538C100.75 101.42 99.1972 102.437 98.2082 103.082L97.7466 103.384C97.0639 103.825 96.5843 104.519 96.4135 105.313C96.2426 106.108 96.3944 106.937 96.8352 107.619C97.2764 108.302 97.9708 108.781 98.7654 108.952C99.56 109.123 100.39 108.971 101.073 108.53L101.608 108.179C102.609 107.526 103.892 106.688 105.29 105.953C105.617 105.778 105.931 105.622 106.234 105.479C113.303 112.108 125.999 114.252 133.681 114.252C141.363 114.252 154.059 112.108 161.128 105.479C161.43 105.622 161.741 105.778 162.072 105.953C163.469 106.688 164.753 107.526 165.754 108.179L166.289 108.53C166.972 108.971 167.802 109.123 168.596 108.952C169.391 108.781 170.085 108.302 170.526 107.619C170.967 106.937 171.119 106.108 170.948 105.313C170.777 104.519 170.298 103.825 169.615 103.384L169.153 103.082C167.788 102.169 166.381 101.32 164.936 100.538L164.838 100.485C165.537 99.0144 166.007 97.3931 166.195 95.6247L167.127 95.9312C169.934 96.8909 172.243 97.9078 172.884 98.3203C173.566 98.7363 174.384 98.8696 175.164 98.6913C175.943 98.5129 176.622 98.0374 177.055 97.3661C177.489 96.6946 177.643 95.8806 177.484 95.0975C177.325 94.3145 176.867 93.6242 176.206 93.1743C174.87 92.3084 171.903 91.0913 169.112 90.1357C168.203 89.8261 167.288 89.5362 166.366 89.2661C166.416 84.7573 166.072 80.1013 162.689 76.1072C165.549 77.753 166.285 71.5942 166.289 69.5809V61.9273C166.289 55.2909 161.725 52.9915 157.81 52.9915C153.899 52.9915 146.07 59.3747 143.467 59.3747C140.333 59.3747 139.729 58.7336 133.681 58.7336ZM130.922 96.2824C131.748 96.0005 132.725 95.8741 133.681 95.8741C134.637 95.8741 135.613 96.0005 136.443 96.2824C136.852 96.4213 137.342 96.6416 137.783 96.9928C138.086 97.221 138.333 97.514 138.507 97.8507C138.681 98.187 138.777 98.5583 138.788 98.9368C138.788 99.8761 138.22 100.53 137.783 100.881C137.346 101.232 136.847 101.453 136.443 101.592C135.55 101.874 134.618 102.012 133.681 102C132.746 102.012 131.814 101.874 130.922 101.592C130.437 101.434 129.982 101.194 129.578 100.881C129.276 100.653 129.028 100.36 128.854 100.023C128.68 99.6867 128.584 99.3154 128.573 98.9368C128.573 97.9975 129.141 97.3443 129.578 96.9928C130.016 96.6416 130.518 96.4213 130.922 96.2824ZM142.548 83.6219C143.108 82.6906 144.207 81.5799 145.858 81.5799C147.509 81.5799 148.612 82.6906 149.167 83.6219C149.748 84.598 150.026 85.7742 150.026 86.942C150.026 88.1061 149.748 89.2823 149.167 90.2542C148.612 91.1893 147.509 92.3004 145.858 92.3004C144.207 92.3004 143.108 91.1893 142.548 90.2583C141.97 89.248 141.674 88.1016 141.69 86.9379C141.69 85.7742 141.968 84.598 142.548 83.6257V83.6219ZM118.194 83.6219C118.754 82.6906 119.853 81.5799 121.504 81.5799C123.155 81.5799 124.258 82.6906 124.814 83.6219C125.394 84.598 125.672 85.7742 125.672 86.942C125.672 88.1061 125.394 89.2823 124.814 90.2542C124.258 91.1893 123.155 92.3004 121.504 92.3004C119.853 92.3004 118.754 91.1893 118.194 90.2583C117.617 89.248 117.32 88.1016 117.336 86.9379C117.336 85.7742 117.614 84.598 118.194 83.6257V83.6219Z" fill="#FFBF1B"/>
</svg>
