<svg width="148" height="148" viewBox="0 0 148 148" fill="none" xmlns="http://www.w3.org/2000/svg">
<circle cx="74" cy="74" r="71.5" stroke="white" stroke-width="5"/>
<g clip-path="url(#clip0_667_443)">
<path d="M89 70.5C89 74.8031 87.6031 78.7781 85.25 82.0031L97.1187 93.8812C98.2906 95.0531 98.2906 96.9563 97.1187 98.1281C95.9469 99.3 94.0437 99.3 92.8719 98.1281L81.0031 86.25C77.7781 88.6125 73.8031 90 69.5 90C58.7281 90 50 81.2719 50 70.5C50 59.7281 58.7281 51 69.5 51C80.2719 51 89 59.7281 89 70.5ZM69.5 84C71.2728 84 73.0283 83.6508 74.6662 82.9724C76.3041 82.2939 77.7923 81.2995 79.0459 80.0459C80.2995 78.7923 81.2939 77.3041 81.9724 75.6662C82.6508 74.0283 83 72.2728 83 70.5C83 68.7272 82.6508 66.9717 81.9724 65.3338C81.2939 63.6959 80.2995 62.2076 79.0459 60.9541C77.7923 59.7005 76.3041 58.7061 74.6662 58.0276C73.0283 57.3492 71.2728 57 69.5 57C67.7272 57 65.9717 57.3492 64.3338 58.0276C62.6959 58.7061 61.2076 59.7005 59.9541 60.9541C58.7005 62.2076 57.7061 63.6959 57.0276 65.3338C56.3492 66.9717 56 68.7272 56 70.5C56 72.2728 56.3492 74.0283 57.0276 75.6662C57.7061 77.3041 58.7005 78.7923 59.9541 80.0459C61.2076 81.2995 62.6959 82.2939 64.3338 82.9724C65.9717 83.6508 67.7272 84 69.5 84Z" fill="white"/>
</g>
<defs>
<clipPath id="clip0_667_443">
<rect width="48" height="48" fill="white" transform="translate(50 51)"/>
</clipPath>
</defs>
</svg>
