<svg width="15" height="15" viewBox="0 0 15 15" fill="none" xmlns="http://www.w3.org/2000/svg">
<g clip-path="url(#clip0_584_558)">
<path fill-rule="evenodd" clip-rule="evenodd" d="M13.4668 3.19436C13.6425 3.37016 13.7412 3.60858 13.7412 3.85717C13.7412 4.10576 13.6425 4.34417 13.4668 4.51998L6.43988 11.5469C6.34702 11.6397 6.23677 11.7134 6.11543 11.7637C5.99409 11.814 5.86403 11.8398 5.73269 11.8398C5.60135 11.8398 5.4713 11.814 5.34996 11.7637C5.22862 11.7134 5.11837 11.6397 5.0255 11.5469L1.53425 8.05623C1.44471 7.96975 1.37329 7.8663 1.32416 7.75192C1.27503 7.63754 1.24916 7.51452 1.24808 7.39004C1.247 7.26556 1.27072 7.14211 1.31786 7.0269C1.365 6.91168 1.43461 6.80701 1.52263 6.71898C1.61066 6.63096 1.71533 6.56135 1.83055 6.51421C1.94576 6.46707 2.06921 6.44335 2.19369 6.44443C2.31817 6.44551 2.44119 6.47138 2.55557 6.52051C2.66995 6.56964 2.7734 6.64106 2.85988 6.73061L5.73238 9.60311L12.1405 3.19436C12.2276 3.10724 12.3309 3.03813 12.4447 2.99098C12.5585 2.94382 12.6805 2.91956 12.8036 2.91956C12.9268 2.91956 13.0488 2.94382 13.1625 2.99098C13.2763 3.03813 13.3797 3.10724 13.4668 3.19436Z" fill="#FFBF1B"/>
</g>
<defs>
<clipPath id="clip0_584_558">
<rect width="15" height="15" fill="white"/>
</clipPath>
</defs>
</svg>
