<svg width="148" height="148" viewBox="0 0 148 148" fill="none" xmlns="http://www.w3.org/2000/svg">
<circle cx="74" cy="74" r="71.5" stroke="white" stroke-width="5"/>
<path fill-rule="evenodd" clip-rule="evenodd" d="M79.3825 60.4435C79.3825 55.4602 83.445 51.4167 88.45 51.4167C89.6382 51.4138 90.8154 51.645 91.9144 52.0971C93.0133 52.5492 94.0124 53.2134 94.8546 54.0516C95.6969 54.8898 96.3658 55.8857 96.8231 56.9824C97.2805 58.0792 97.5173 59.2553 97.5202 60.4435C97.5202 65.4296 93.4577 69.4731 88.45 69.4731C87.2491 69.4746 86.0598 69.2374 84.9514 68.7752C83.843 68.313 82.8375 67.6352 81.9933 66.781L69.4402 75.3285C69.7898 77.07 69.6183 78.8759 68.9473 80.5204L82.711 89.5662C84.3321 88.2441 86.3608 87.5236 88.4527 87.5269C89.641 87.5244 90.8181 87.7559 91.9169 88.2084C93.0156 88.6608 94.0145 89.3252 94.8565 90.1637C95.6985 91.0022 96.3671 91.9983 96.8242 93.0952C97.2812 94.192 97.5177 95.3682 97.5202 96.5564C97.5202 101.54 93.4577 105.583 88.45 105.583C86.0506 105.588 83.7475 104.64 82.0471 102.947C80.3467 101.255 79.3882 98.9558 79.3825 96.5564C79.3804 95.2907 79.6472 94.0389 80.1652 92.8839L66.5098 83.9167C64.8561 85.3545 62.7374 86.1445 60.546 86.1402C59.3576 86.143 58.1804 85.9117 57.0814 85.4594C55.9825 85.0071 54.9834 84.3427 54.1414 83.5041C53.2993 82.6656 52.6307 81.6693 52.1738 80.5723C51.7169 79.4753 51.4806 78.299 51.4785 77.1106C51.481 75.9225 51.7175 74.7464 52.1746 73.6497C52.6317 72.553 53.3003 71.5571 54.1423 70.7188C54.9844 69.8806 55.9833 69.2164 57.082 68.7643C58.1808 68.3121 59.3579 68.0809 60.546 68.0837C63.4277 68.0837 65.9898 69.4189 67.65 71.4989L79.8185 63.2142C79.529 62.3191 79.3819 61.3842 79.3825 60.4435Z" fill="white"/>
</svg>
