<svg width="604" height="415" viewBox="0 0 604 415" fill="none" xmlns="http://www.w3.org/2000/svg">
<path d="M542.582 265.279H397.022C394.419 265.279 392.301 263.096 392.301 260.413V41.8959C392.301 39.2134 394.419 37.0305 397.022 37.0305H542.582C545.185 37.0305 547.303 39.2125 547.303 41.8959V260.413C547.303 263.097 545.185 265.279 542.582 265.279ZM397.022 37.2388C394.529 37.2388 392.502 39.3287 392.502 41.8967V260.413C392.502 262.982 394.53 265.071 397.022 265.071H542.582C545.075 265.071 547.102 262.981 547.102 260.413V41.8959C547.102 39.3279 545.074 37.238 542.582 37.238L397.022 37.2388Z" fill="#E0E0E0"/>
<path d="M374.728 265.279H229.166C226.563 265.279 224.445 263.096 224.445 260.413V41.8959C224.445 39.2134 226.563 37.0305 229.166 37.0305H374.728C377.331 37.0305 379.449 39.2125 379.449 41.8959V260.413C379.449 263.097 377.331 265.279 374.728 265.279ZM229.166 37.2388C226.674 37.2388 224.647 39.3287 224.647 41.8967V260.413C224.647 262.982 226.674 265.071 229.166 265.071H374.728C377.22 265.071 379.247 262.981 379.247 260.413V41.8959C379.247 39.3279 377.219 37.238 374.728 37.238L229.166 37.2388Z" fill="#E0E0E0"/>
<path d="M206.981 265.279H61.4201C58.8172 265.279 56.6992 263.096 56.6992 260.413V41.8959C56.6992 39.2134 58.8164 37.0305 61.4201 37.0305H206.981C209.584 37.0305 211.702 39.2125 211.702 41.8959V260.413C211.702 263.097 209.584 265.279 206.981 265.279ZM61.4201 37.2388C58.9284 37.2388 56.9006 39.3287 56.9006 41.8967V260.413C56.9006 262.982 58.9284 265.071 61.4201 265.071H206.981C209.473 265.071 211.5 262.981 211.5 260.413V41.8959C211.5 39.3279 209.473 37.238 206.981 37.238L61.4201 37.2388Z" fill="#E0E0E0"/>
<path d="M604 315.967H0V316.067H604V315.967Z" fill="#E0E0E0"/>
<path d="M571.267 340.349H526.387V340.698H571.267V340.349Z" fill="#EBEBEB"/>
<path d="M410.455 344.138H398.676V344.487H410.455V344.138Z" fill="#EBEBEB"/>
<path d="M91.26 329.727H32.7324V330.076H91.26V329.727Z" fill="#EBEBEB"/>
<path d="M111.903 329.727H103.322V330.076H111.903V329.727Z" fill="#EBEBEB"/>
<path d="M266.726 335.623H139.795V335.972H266.726V335.623Z" fill="#EBEBEB"/>
<path d="M66.608 283.814L57.002 292.916L92.4938 332.095C92.4938 332.095 106.915 319.944 96.8176 304.839C86.7204 289.734 73.6273 283.979 66.608 283.813V283.814Z" fill="#E0E0E0"/>
<path d="M70.9507 262.249C72.9455 263.655 74.4812 266.035 75.4742 268.272C76.5026 270.587 77.0656 273.084 77.1082 275.631C77.1936 280.715 74.9757 285.723 71.3509 289.134C69.6903 290.697 67.321 288.047 68.9848 286.482C71.8985 283.74 73.6131 279.841 73.6179 275.764C73.6203 273.808 73.1959 271.832 72.4196 270.048C71.6932 268.378 70.5979 266.363 69.0976 265.306C67.2429 263.999 69.092 260.94 70.9507 262.249Z" fill="#E0E0E0"/>
<path d="M101.571 278.849C94.0653 281.5 88.1783 288.075 85.9878 295.892C85.3621 298.125 82.0215 297.059 82.6457 294.833C85.2099 285.683 92.1212 278.403 100.827 275.328C101.727 275.011 102.713 275.836 102.907 276.705C103.138 277.743 102.458 278.536 101.571 278.849Z" fill="#E0E0E0"/>
<path d="M111.747 304.256C104.994 301.429 97.2708 301.87 90.8909 305.521C88.9251 306.647 87.3241 303.442 89.2932 302.315C96.3906 298.253 105.246 297.659 112.775 300.811C113.649 301.177 114.226 302.076 113.932 303.063C113.674 303.93 112.626 304.623 111.747 304.256V304.256Z" fill="#E0E0E0"/>
<path d="M44.8716 304.411L54.4776 295.308L89.384 335.042C89.384 335.042 76.427 348.834 62.6687 337.198C48.9104 325.562 44.4424 311.633 44.8716 304.411Z" fill="#E0E0E0"/>
<path d="M26.7674 305.418C27.642 307.009 29.4427 308.281 30.9535 309.159C32.6471 310.144 34.5614 310.771 36.5007 310.937C40.4428 311.274 44.3559 309.841 47.2511 307.078C48.902 305.502 51.2705 308.152 49.6171 309.73C46.0157 313.166 40.9872 315.025 36.0795 314.511C33.6224 314.254 31.2507 313.469 29.1013 312.216C27.0227 311.003 24.8507 309.234 23.6572 307.065C22.5483 305.049 25.6569 303.401 26.7674 305.418Z" fill="#E0E0E0"/>
<path d="M33.7989 338.843C37.501 330.162 45.1187 323.673 54.1803 321.806C56.3837 321.352 57.1383 324.871 54.9244 325.327C47.1827 326.921 40.3326 332.417 37.1402 339.902C36.7577 340.8 35.9338 341.393 34.9554 341.095C34.1307 340.844 33.4196 339.732 33.7989 338.843Z" fill="#E0E0E0"/>
<path d="M57.436 353.25C55.0192 345.254 56.336 336.209 60.8579 329.26C62.111 327.335 65.0787 329.242 63.8239 331.169C59.7586 337.415 58.6843 345.31 60.8523 352.483C61.1333 353.412 60.3811 354.432 59.5162 354.627C58.5273 354.848 57.7179 354.182 57.436 353.25V353.25Z" fill="#E0E0E0"/>
<path d="M64.1832 282.322C64.3112 282.616 54.2035 273.698 45.6211 281.831C37.0386 289.963 43.5312 301.898 43.5312 301.898L64.1832 282.322Z" fill="#E0E0E0"/>
<path d="M464.258 65.2919C462.707 67.7255 461.664 70.3981 461.109 73.1553L456.848 73.5687V82.072L461.109 82.4862C461.664 85.2426 462.706 87.9152 464.257 90.3496L461.535 93.7369L467.37 99.7502L470.657 96.9456C473.018 98.5434 475.612 99.6182 478.286 100.19L478.687 104.582H486.938L487.339 100.191C490.015 99.6182 492.608 98.5434 494.969 96.9456L498.255 99.7502L504.09 93.7369L501.369 90.3488C502.919 87.9152 503.962 85.2426 504.517 82.4854L508.777 82.0712V73.5679L504.517 73.1537C503.961 70.3973 502.918 67.7247 501.368 65.2911L504.089 61.9039L498.255 55.8905L494.968 58.6951C492.607 57.0973 490.013 56.0217 487.339 55.4498L486.937 51.0591H478.687L478.286 55.4506C475.611 56.0233 473.018 57.0973 470.657 58.6951L467.37 55.8905L461.535 61.9039L464.258 65.2919ZM490.636 69.5913C494.764 73.8467 494.765 80.7457 490.636 85.0011C486.507 89.2565 479.813 89.2557 475.684 85.0011C471.555 80.7457 471.555 73.8467 475.684 69.5913C479.813 65.3359 486.507 65.3359 490.636 69.5913Z" fill="#E0E0E0"/>
<path d="M517.739 65.404C516.822 66.8424 516.206 68.4219 515.878 70.0512L513.359 70.2952V75.3209L515.878 75.5657C516.205 77.195 516.822 78.7745 517.738 80.2129L516.13 82.2148L519.578 85.7689L521.521 84.1114C522.916 85.0559 524.449 85.6909 526.03 86.0295L526.266 88.6249H531.143L531.38 86.0295C532.961 85.6909 534.494 85.0559 535.889 84.1114L537.832 85.7689L541.28 82.2148L539.672 80.2129C540.588 78.7745 541.205 77.195 541.532 75.5657L544.05 75.3209V70.2952L541.532 70.0504C541.204 68.4211 540.588 66.8416 539.671 65.4032L541.279 63.4012L537.831 59.8472L535.889 61.5047C534.493 60.5601 532.96 59.9244 531.379 59.5866L531.142 56.9911H526.266L526.029 59.5866C524.448 59.9252 522.915 60.5601 521.52 61.5039L519.577 59.8463L516.129 63.4004L517.737 65.4024L517.739 65.404ZM533.329 67.9447C535.769 70.4596 535.769 74.5373 533.329 77.0522C530.889 79.5671 526.932 79.5671 524.492 77.0522C522.052 74.5373 522.052 70.4596 524.492 67.9447C526.932 65.4298 530.889 65.4298 533.329 67.9447Z" fill="#F0F0F0"/>
<path d="M68.8735 109.751C67.9571 111.189 67.341 112.769 67.0124 114.398L64.4941 114.642V119.668L67.0124 119.913C67.3402 121.542 67.9571 123.121 68.8727 124.56L67.2645 126.562L70.7129 130.116L72.6554 128.458C74.051 129.403 75.5836 130.038 77.1645 130.376L77.4012 132.972H82.2775L82.5151 130.376C84.096 130.038 85.6285 129.403 87.0241 128.458L88.9666 130.116L92.415 126.562L90.8068 124.56C91.7233 123.121 92.3393 121.542 92.6671 119.913L95.1846 119.668V114.642L92.6671 114.397C92.3385 112.768 91.7225 111.188 90.806 109.75L92.4142 107.748L88.9658 104.194L87.0233 105.852C85.6277 104.907 84.0951 104.271 82.5143 103.933L82.2767 101.338H77.4004L77.1636 103.933C75.5828 104.272 74.0502 104.907 72.6546 105.852L70.7121 104.194L67.2637 107.748L68.8719 109.75L68.8735 109.751ZM84.464 112.292C86.9041 114.807 86.9041 118.885 84.464 121.4C82.0238 123.915 78.0672 123.915 75.6271 121.4C73.1869 118.885 73.1869 114.807 75.6271 112.292C78.0672 109.777 82.0238 109.777 84.464 112.292Z" fill="#F0F0F0"/>
<path d="M130.769 337.088C129.212 339.531 128.164 342.216 127.607 344.985L123.328 345.4V353.939L127.608 354.355C128.165 357.123 129.213 359.808 130.769 362.252L128.036 365.654L133.896 371.692L137.197 368.876C139.568 370.48 142.173 371.56 144.859 372.135L145.261 376.544H153.547L153.951 372.135C156.638 371.559 159.242 370.48 161.613 368.876L164.914 371.692L170.774 365.653L168.041 362.251C169.598 359.807 170.645 357.122 171.203 354.354L175.481 353.939V345.399L171.203 344.983C170.645 342.215 169.598 339.531 168.04 337.086L170.774 333.684L164.914 327.646L161.613 330.462C159.241 328.858 156.637 327.778 153.951 327.203L153.547 322.793H145.261L144.859 327.203C142.173 327.778 139.568 328.857 137.197 330.461L133.896 327.645L128.036 333.684L130.769 337.086L130.769 337.088ZM157.26 341.406C161.406 345.678 161.407 352.608 157.26 356.881C153.113 361.155 146.39 361.155 142.244 356.881C138.097 352.607 138.097 345.679 142.244 341.405C146.39 337.131 153.113 337.131 157.259 341.405L157.26 341.406Z" fill="#F0F0F0"/>
<path d="M300.139 391.849C427.067 391.849 529.962 389.654 529.962 386.946C529.962 384.238 427.067 382.043 300.139 382.043C173.212 382.043 70.3164 384.238 70.3164 386.946C70.3164 389.654 173.212 391.849 300.139 391.849Z" fill="#F5F5F5"/>
<path d="M382.209 335.563C381.393 338.009 381.066 340.546 381.177 343.045L377.598 344.366L379.411 351.685L383.167 351.076C384.233 353.323 385.701 355.387 387.555 357.13L385.935 360.662L392.239 364.516L394.47 361.358C396.844 362.198 399.305 362.536 401.729 362.422L403.012 366.111L410.113 364.241L409.522 360.37C411.702 359.271 413.705 357.758 415.397 355.848L418.824 357.518L422.563 351.02L419.499 348.721C420.314 346.275 420.642 343.739 420.532 341.24L424.11 339.918L422.296 332.599L418.541 333.208C417.475 330.962 416.006 328.897 414.153 327.154L415.773 323.622L409.469 319.768L407.238 322.927C404.865 322.087 402.403 321.749 399.979 321.862L398.697 318.174L391.595 320.044L392.186 323.914C390.006 325.013 388.003 326.525 386.312 328.436L382.885 326.767L379.146 333.265L382.211 335.564L382.209 335.563ZM405.719 333.687C410.25 336.456 411.745 342.487 409.057 347.157C406.37 351.827 400.517 353.367 395.987 350.598C391.456 347.828 389.962 341.797 392.649 337.128C395.337 332.458 401.187 330.917 405.719 333.687Z" fill="#FFC100"/>
<path opacity="0.4" d="M382.209 335.563C381.393 338.009 381.066 340.546 381.177 343.045L377.598 344.366L379.411 351.685L383.167 351.076C384.233 353.323 385.701 355.387 387.555 357.13L385.935 360.662L392.239 364.516L394.47 361.358C396.844 362.198 399.305 362.536 401.729 362.422L403.012 366.111L410.113 364.241L409.522 360.37C411.702 359.271 413.705 357.758 415.397 355.848L418.824 357.518L422.563 351.02L419.499 348.721C420.314 346.275 420.642 343.739 420.532 341.24L424.11 339.918L422.296 332.599L418.541 333.208C417.475 330.962 416.006 328.897 414.153 327.154L415.773 323.622L409.469 319.768L407.238 322.927C404.865 322.087 402.403 321.749 399.979 321.862L398.697 318.174L391.595 320.044L392.186 323.914C390.006 325.013 388.003 326.525 386.312 328.436L382.885 326.767L379.146 333.265L382.211 335.564L382.209 335.563ZM405.719 333.687C410.25 336.456 411.745 342.487 409.057 347.157C406.37 351.827 400.517 353.367 395.987 350.598C391.456 347.828 389.962 341.797 392.649 337.128C395.337 332.458 401.187 330.917 405.719 333.687Z" fill="white"/>
<path d="M430.125 353.483C429.637 354.947 429.441 356.465 429.507 357.961L427.365 358.752L428.451 363.132L430.698 362.767C431.336 364.112 432.215 365.348 433.325 366.391L432.355 368.505L436.129 370.812L437.464 368.921C438.885 369.424 440.358 369.626 441.809 369.557L442.576 371.765L446.827 370.646L446.473 368.329C447.778 367.671 448.977 366.766 449.989 365.622L452.041 366.621L454.279 362.732L452.444 361.355C452.932 359.891 453.128 358.373 453.062 356.878L455.203 356.087L454.118 351.706L451.87 352.07C451.232 350.726 450.353 349.49 449.244 348.446L450.213 346.332L446.44 344.026L445.104 345.917C443.684 345.414 442.21 345.211 440.76 345.279L439.992 343.071L435.741 344.19L436.095 346.507C434.79 347.164 433.591 348.07 432.579 349.213L430.528 348.213L428.29 352.103L430.124 353.479L430.125 353.483ZM444.197 352.36C446.908 354.017 447.803 357.627 446.195 360.422C444.586 363.217 441.084 364.138 438.372 362.481C435.659 360.823 434.765 357.214 436.374 354.419C437.982 351.624 441.485 350.702 444.197 352.36Z" fill="#FFC100"/>
<path opacity="0.7" d="M430.125 353.483C429.637 354.947 429.441 356.465 429.507 357.961L427.365 358.752L428.451 363.132L430.698 362.767C431.336 364.112 432.215 365.348 433.325 366.391L432.355 368.505L436.129 370.812L437.464 368.921C438.885 369.424 440.358 369.626 441.809 369.557L442.576 371.765L446.827 370.646L446.473 368.329C447.778 367.671 448.977 366.766 449.989 365.622L452.041 366.621L454.279 362.732L452.444 361.355C452.932 359.891 453.128 358.373 453.062 356.878L455.203 356.087L454.118 351.706L451.87 352.07C451.232 350.726 450.353 349.49 449.244 348.446L450.213 346.332L446.44 344.026L445.104 345.917C443.684 345.414 442.21 345.211 440.76 345.279L439.992 343.071L435.741 344.19L436.095 346.507C434.79 347.164 433.591 348.07 432.579 349.213L430.528 348.213L428.29 352.103L430.124 353.479L430.125 353.483ZM444.197 352.36C446.908 354.017 447.803 357.627 446.195 360.422C444.586 363.217 441.084 364.138 438.372 362.481C435.659 360.823 434.765 357.214 436.374 354.419C437.982 351.624 441.485 350.702 444.197 352.36Z" fill="white"/>
<path d="M253.158 63.5049C251.249 66.5029 249.964 69.7955 249.28 73.1919L244.031 73.7006V84.1761L249.28 84.6857C249.964 88.0812 251.249 91.3738 253.159 94.3718L249.807 98.545L256.994 105.952L261.043 102.497C263.952 104.465 267.147 105.789 270.441 106.495L270.936 111.905H281.1L281.594 106.496C284.89 105.79 288.084 104.466 290.993 102.498L295.043 105.953L302.23 98.5459L298.878 94.3726C300.788 91.3747 302.072 88.0821 302.757 84.6865L308.004 84.1769V73.7015L302.757 73.1919C302.072 69.7963 300.788 66.5037 298.878 63.5058L302.229 59.3325L295.043 51.9256L290.993 55.3801C288.085 53.4113 284.889 52.0874 281.595 51.3819L281.101 45.9728H270.937L270.442 51.3828C267.148 52.0883 263.953 53.4113 261.044 55.3801L256.995 51.9256L249.807 59.3333L253.159 63.5066L253.158 63.5049ZM285.371 69.2992C290.535 74.6228 290.536 83.2539 285.371 88.5776C280.204 93.9012 271.83 93.9012 266.665 88.5776C261.5 83.2539 261.5 74.6228 266.665 69.2983C271.831 63.9747 280.204 63.9755 285.371 69.2992Z" fill="#FFC100"/>
<path opacity="0.4" d="M253.158 63.5049C251.249 66.5029 249.964 69.7955 249.28 73.1919L244.031 73.7006V84.1761L249.28 84.6857C249.964 88.0812 251.249 91.3738 253.159 94.3718L249.807 98.545L256.994 105.952L261.043 102.497C263.952 104.465 267.147 105.789 270.441 106.495L270.936 111.905H281.1L281.594 106.496C284.89 105.79 288.084 104.466 290.993 102.498L295.043 105.953L302.23 98.5459L298.878 94.3726C300.788 91.3747 302.072 88.0821 302.757 84.6865L308.004 84.1769V73.7015L302.757 73.1919C302.072 69.7963 300.788 66.5037 298.878 63.5058L302.229 59.3325L295.043 51.9256L290.993 55.3801C288.085 53.4113 284.889 52.0874 281.595 51.3819L281.101 45.9728H270.937L270.442 51.3828C267.148 52.0883 263.953 53.4113 261.044 55.3801L256.995 51.9256L249.807 59.3333L253.159 63.5066L253.158 63.5049ZM285.371 69.2992C290.535 74.6228 290.536 83.2539 285.371 88.5776C280.204 93.9012 271.83 93.9012 266.665 88.5776C261.5 83.2539 261.5 74.6228 266.665 69.2983C271.831 63.9747 280.204 63.9755 285.371 69.2992Z" fill="white"/>
<path d="M207.715 42.242C206.623 43.9543 205.89 45.8359 205.498 47.7765L202.5 48.0678V54.0529L205.499 54.3442C205.89 56.284 206.623 58.1647 207.715 59.8779L205.799 62.2616L209.906 66.4938L212.219 64.52C213.881 65.6447 215.706 66.4008 217.588 66.8034L217.871 69.8943H223.677L223.96 66.8034C225.843 66.4 227.667 65.6439 229.33 64.5192L231.643 66.493L235.75 62.2608L233.835 59.8762C234.926 58.1631 235.66 56.2823 236.05 54.3418L239.048 54.0504V48.0653L236.05 47.774C235.66 45.8343 234.925 43.9526 233.834 42.2404L235.749 39.8566L231.643 35.6244L229.33 37.5982C227.667 36.4735 225.843 35.7166 223.961 35.314L223.678 32.2231H217.871L217.588 35.314C215.706 35.7166 213.88 36.4727 212.219 37.5973L209.905 35.6236L205.799 39.8558L207.714 42.2404L207.715 42.242ZM226.118 45.5521C229.069 48.5932 229.069 53.525 226.118 56.5662C223.166 59.6081 218.382 59.6073 215.431 56.5662C212.48 53.5242 212.48 48.5932 215.431 45.5521C218.383 42.5109 223.167 42.5101 226.118 45.5521Z" fill="#FFC100"/>
<path opacity="0.7" d="M207.715 42.242C206.623 43.9543 205.89 45.8359 205.498 47.7765L202.5 48.0678V54.0529L205.499 54.3442C205.89 56.284 206.623 58.1647 207.715 59.8779L205.799 62.2616L209.906 66.4938L212.219 64.52C213.881 65.6447 215.706 66.4008 217.588 66.8034L217.871 69.8943H223.677L223.96 66.8034C225.843 66.4 227.667 65.6439 229.33 64.5192L231.643 66.493L235.75 62.2608L233.835 59.8762C234.926 58.1631 235.66 56.2823 236.05 54.3418L239.048 54.0504V48.0653L236.05 47.774C235.66 45.8343 234.925 43.9526 233.834 42.2404L235.749 39.8566L231.643 35.6244L229.33 37.5982C227.667 36.4735 225.843 35.7166 223.961 35.314L223.678 32.2231H217.871L217.588 35.314C215.706 35.7166 213.88 36.4727 212.219 37.5973L209.905 35.6236L205.799 39.8558L207.714 42.2404L207.715 42.242ZM226.118 45.5521C229.069 48.5932 229.069 53.525 226.118 56.5662C223.166 59.6081 218.382 59.6073 215.431 56.5662C212.48 53.5242 212.48 48.5932 215.431 45.5521C218.383 42.5109 223.167 42.5101 226.118 45.5521Z" fill="white"/>
<path d="M440.797 88.1842H122.559C113.996 88.1842 107.055 95.3383 107.055 104.163V322.902C107.055 331.727 113.996 338.881 122.559 338.881H440.797C449.36 338.881 456.301 331.727 456.301 322.902V104.163C456.301 95.3383 449.36 88.1842 440.797 88.1842Z" fill="#263238"/>
<path opacity="0.1" d="M120.784 94.5793H441.432C446.437 94.5793 450.502 98.7675 450.502 103.927V298.294H114.633V100.918C114.633 97.4196 117.389 94.5793 120.783 94.5793H120.784Z" fill="white"/>
<path opacity="0.8" d="M107.055 298.011H456.301V323.454C456.301 331.968 449.594 338.88 441.334 338.88H121.891C113.703 338.88 107.055 332.028 107.055 323.589V298.011Z" fill="white"/>
<path d="M356.141 386.128H214.367L223.823 338.881H344.231L356.141 386.128Z" fill="#263238"/>
<path opacity="0.8" d="M356.141 386.128H214.367L223.823 338.881H344.231L356.141 386.128Z" fill="white"/>
<path opacity="0.2" d="M346.629 348.394H221.846L223.823 338.881H344.231L346.629 348.394Z" fill="black"/>
<path d="M369.918 339.191H212.103C211.936 339.191 211.801 339.052 211.801 338.88C211.801 338.708 211.936 338.569 212.103 338.569H369.918C370.084 338.569 370.22 338.708 370.22 338.88C370.22 339.052 370.084 339.191 369.918 339.191Z" fill="#263238"/>
<path d="M83.1859 164.217C79.8317 169.481 77.5768 175.264 76.3744 181.227L67.1582 182.121V200.516L76.3752 201.412C77.5752 207.374 79.8317 213.156 83.1859 218.422L77.299 225.75L89.9201 238.758L97.0304 232.691C102.139 236.147 107.749 238.473 113.535 239.711L114.403 249.21H132.252L133.12 239.711C138.906 238.471 144.516 236.147 149.624 232.691L156.735 238.757L169.356 225.749L163.47 218.421C166.823 213.156 169.079 207.375 170.28 201.411L179.495 200.516L179.497 182.121L170.28 181.226C169.079 175.263 166.822 169.481 163.469 164.216L169.356 156.888L156.735 143.881L149.624 149.947C144.516 146.49 138.905 144.164 133.12 142.927L132.251 133.428H114.402L113.534 142.928C107.748 144.166 102.138 146.49 97.0304 149.947L89.9201 143.88L77.299 156.887L83.1859 164.216V164.217ZM139.954 175.021C149.136 184.484 149.136 199.828 139.954 209.292C130.771 218.756 115.882 218.755 106.701 209.292C97.5185 199.828 97.5185 184.485 106.701 175.02C115.883 165.557 130.77 165.557 139.953 175.02L139.954 175.021Z" fill="#FFC100"/>
<path opacity="0.3" d="M142.342 276.057H426.455V286.379C426.455 287.874 425.278 289.087 423.828 289.087H145.661C143.829 289.087 142.343 287.555 142.343 285.668V276.056L142.342 276.057Z" fill="black"/>
<path d="M136.691 74.2825H426.722C429.71 74.2825 432.137 76.7833 432.137 79.8643V272.618C432.137 275.698 429.711 278.199 426.722 278.199H136.691C133.703 278.199 131.275 275.699 131.275 272.618V79.8643C131.275 76.7842 133.702 74.2834 136.69 74.2834L136.691 74.2825Z" fill="#FFC100"/>
<path opacity="0.6" d="M136.691 74.2825H426.722C429.71 74.2825 432.137 76.7833 432.137 79.8643V272.618C432.137 275.698 429.711 278.199 426.722 278.199H136.691C133.703 278.199 131.275 275.699 131.275 272.618V79.8643C131.275 76.7842 133.702 74.2834 136.69 74.2834L136.691 74.2825Z" fill="white"/>
<path d="M432.192 91.0419H131.275V78.3471C131.275 76.1027 133.041 74.2834 135.218 74.2834H426.86C429.805 74.2834 432.192 76.7435 432.192 79.7788V91.0419Z" fill="#FFC100"/>
<path d="M426.57 82.2497C426.987 84.5231 425.091 86.4794 422.885 86.0494C421.659 85.8104 420.656 84.7779 420.424 83.5146C420.004 81.2396 421.904 79.2816 424.111 79.7132C425.336 79.9531 426.338 80.9864 426.57 82.2497Z" fill="white"/>
<path d="M417.668 82.2497C418.086 84.5239 416.188 86.4802 413.982 86.0494C412.757 85.8104 411.754 84.777 411.521 83.5146C411.102 81.2404 413.001 79.2824 415.208 79.714C416.434 79.9539 417.436 80.9864 417.668 82.2497Z" fill="white"/>
<path d="M408.767 82.2497C409.185 84.5231 407.288 86.4794 405.082 86.0494C403.856 85.8104 402.854 84.7779 402.621 83.5146C402.201 81.2396 404.1 79.2816 406.308 79.7132C407.534 79.9531 408.535 80.9864 408.767 82.2497Z" fill="white"/>
<path d="M163.329 119.42H157.143V125.796H163.329V119.42Z" fill="#263238"/>
<path d="M163.329 134.523H157.143V140.899H163.329V134.523Z" fill="#FFC100"/>
<path d="M163.329 149.627H157.143V156.003H163.329V149.627Z" fill="#263238"/>
<path d="M163.329 164.73H157.143V171.106H163.329V164.73Z" fill="#FFC100"/>
<path d="M163.329 179.834H157.143V186.21H163.329V179.834Z" fill="#263238"/>
<path d="M163.329 194.937H157.143V201.313H163.329V194.937Z" fill="#FFC100"/>
<path d="M163.329 210.041H157.143V216.417H163.329V210.041Z" fill="#263238"/>
<path d="M163.329 225.144H157.143V231.52H163.329V225.144Z" fill="#FFC100"/>
<path d="M163.329 240.247H157.143V246.623H163.329V240.247Z" fill="#263238"/>
<path d="M163.329 255.35H157.143V261.726H163.329V255.35Z" fill="#FFC100"/>
<path d="M220.774 119.42H192.68V125.796H220.774V119.42Z" fill="#FFC100"/>
<path d="M220.774 149.891H192.68V156.267H220.774V149.891Z" fill="white"/>
<path d="M257.026 134.523H192.68V140.899H257.026V134.523Z" fill="#FFC100"/>
<path d="M300.709 134.523H264.156V140.899H300.709V134.523Z" fill="white"/>
<path d="M257.026 163.532H192.68V169.908H257.026V163.532Z" fill="#FFC100"/>
<path d="M300.709 163.532H264.156V169.908H300.709V163.532Z" fill="#FFC100"/>
<path d="M269.981 179.693H221.369V186.069H269.981V179.693Z" fill="#FFC100"/>
<path d="M326.62 163.532H309.146V169.908H326.62V163.532Z" fill="white"/>
<path d="M257.026 210.041H192.68V216.417H257.026V210.041Z" fill="#FFC100"/>
<path d="M300.709 210.041H264.156V216.417H300.709V210.041Z" fill="#FFC100"/>
<path d="M322.363 225.462H256.381V231.838H322.363V225.462Z" fill="#FFC100"/>
<path d="M371.883 225.462H327.48V231.838H371.883V225.462Z" fill="#FFC100"/>
<path d="M326.62 210.041H309.146V216.417H326.62V210.041Z" fill="white"/>
<path d="M249.704 225.462H192.424V231.838H249.704V225.462Z" fill="white"/>
<path d="M295.016 179.693H277.543V186.069H295.016V179.693Z" fill="white"/>
<path d="M381.151 194.21H346.293V200.586H381.151V194.21Z" fill="#FFC100"/>
<path d="M402.303 194.21H385.582V200.586H402.303V194.21Z" fill="#FFC100"/>
<path d="M270.499 149.876H227.885V156.253H270.499V149.876Z" fill="#FFC100"/>
<path d="M382.742 163.532H335.518V169.908H382.742V163.532Z" fill="#FFC100"/>
<path d="M269.981 194.21H221.369V200.586H269.981V194.21Z" fill="#FFC100"/>
<path d="M339.928 194.21H277.543V200.586H339.928V194.21Z" fill="#FFC100"/>
<path d="M365.575 134.523H308.666V140.899H365.575V134.523Z" fill="#FFC100"/>
<path d="M232.687 240.247H192.68V246.623H232.687V240.247Z" fill="#FFC100"/>
<path d="M204.563 255.873H192.68V262.249H204.563V255.873Z" fill="#FFC100"/>
<path d="M175.469 116.681V265.088C175.469 266.29 177.281 266.291 177.281 265.088V116.681C177.281 115.48 175.469 115.478 175.469 116.681Z" fill="#FFC100"/>
<path d="M353.971 68.2991H313.715C313.493 68.2991 313.312 68.1131 313.312 67.8841C313.312 67.655 313.493 67.4691 313.715 67.4691H353.971C354.193 67.4691 354.373 67.655 354.373 67.8841C354.373 68.1131 354.193 68.2991 353.971 68.2991Z" fill="#FFC100"/>
<path d="M368.323 68.2991H358.631C358.409 68.2991 358.229 68.1131 358.229 67.8841C358.229 67.655 358.409 67.4691 358.631 67.4691H368.323C368.545 67.4691 368.725 67.655 368.725 67.8841C368.725 68.1131 368.545 68.2991 368.323 68.2991Z" fill="#FFC100"/>
<path d="M551.839 107.608C544.81 102.003 534.705 103.331 529.267 110.574C525.069 116.166 524.895 123.64 528.261 129.341L526.855 134.106L531.942 133.658C532.012 133.716 532.073 133.78 532.145 133.837C539.173 139.442 549.278 138.114 554.717 130.871C560.155 123.628 558.867 113.213 551.839 107.608Z" fill="#FFC100"/>
<path opacity="0.7" d="M551.839 107.608C544.81 102.003 534.705 103.331 529.267 110.574C525.069 116.166 524.895 123.64 528.261 129.341L526.855 134.106L531.942 133.658C532.012 133.716 532.073 133.78 532.145 133.837C539.173 139.442 549.278 138.114 554.717 130.871C560.155 123.628 558.867 113.213 551.839 107.608Z" fill="white"/>
<path d="M560.119 120.753H560.109C559.997 120.748 559.912 120.65 559.918 120.535C560.188 115.241 557.657 109.828 553.473 106.745C553.383 106.678 553.362 106.549 553.426 106.456C553.49 106.362 553.617 106.341 553.707 106.408C558 109.571 560.597 115.124 560.321 120.558C560.314 120.668 560.226 120.754 560.119 120.754V120.753Z" fill="#FFC100"/>
<path d="M559.473 125.626C559.447 125.626 559.422 125.621 559.397 125.611C559.294 125.567 559.245 125.446 559.286 125.34C559.578 124.61 559.724 123.805 559.707 123.016C559.704 122.901 559.792 122.807 559.903 122.804H559.908C560.018 122.804 560.107 122.894 560.109 123.008C560.127 123.854 559.971 124.716 559.659 125.499C559.626 125.579 559.551 125.627 559.472 125.627L559.473 125.626Z" fill="#FFC100"/>
<path d="M538.576 126.457L548.113 116.989L546.239 114.983L536.702 124.451L538.576 126.457Z" fill="#FFC100"/>
<path d="M547.972 124.674L538.785 114.844L536.839 116.776L546.026 126.606L547.972 124.674Z" fill="#FFC100"/>
<path d="M545.965 160.45C550.271 158.323 552.841 153.002 551.893 148.179C549.4 149.171 546.881 150.17 544.237 150.573C541.593 150.975 538.775 150.736 536.454 149.372C534.705 148.343 533.347 146.754 531.961 145.251C530.574 143.748 529.065 142.263 527.175 141.549C525.285 140.835 522.917 141.08 521.602 142.651L518.713 146.888C520.489 146.56 522.282 147.739 523.223 149.326C524.164 150.913 524.414 152.826 524.524 154.683C524.635 156.539 524.63 158.428 525.138 160.212C525.788 162.496 527.249 164.464 528.985 166.033C532.838 169.515 538.254 171.158 543.285 170.154C548.317 169.15 552.815 165.441 554.666 160.516C551.789 160.988 548.836 160.965 545.965 160.45Z" fill="#263238"/>
<path d="M507.075 137.967C507.075 137.967 500.081 149.6 499.602 153.303C497.038 155.343 495.492 150.872 495.858 145.003C496.159 140.198 498.834 135.13 502.953 133.461C508.739 131.117 507.075 137.967 507.075 137.967Z" fill="#263238"/>
<path d="M516.6 158.4L508.354 162.993L506.661 164.715C507.065 165.995 507.394 167.305 507.477 168.553C507.606 170.178 506.143 171.403 505.013 172.459C503.389 173.294 506.513 180.996 506.513 180.996L517.201 169.596C515.207 164.557 515.713 160.485 516.601 158.4H516.6Z" fill="#FDBBB5"/>
<path opacity="0.2" d="M507.504 169.036C509.832 167.873 512.456 165.734 512.385 163.023C512.348 161.881 512.199 160.788 511.993 160.078L506.988 165.827C507.277 166.848 507.357 167.515 507.504 169.036Z" fill="black"/>
<path d="M520.115 146.524C518.657 154.989 518.214 158.595 513.575 162.696C506.598 168.864 496.898 165.739 495.891 157.135C494.984 149.39 497.521 136.848 505.941 133.971C514.238 131.137 521.574 138.059 520.115 146.524Z" fill="#FDBBB5"/>
<path d="M508.728 148.968C508.684 149.77 508.205 150.428 507.659 150.44C507.113 150.452 506.705 149.811 506.749 149.009C506.794 148.207 507.272 147.549 507.819 147.537C508.365 147.526 508.772 148.167 508.728 148.968Z" fill="#263238"/>
<path d="M500.867 147.954C500.867 148.732 500.427 149.399 499.884 149.444C499.342 149.489 498.9 148.894 498.9 148.116C498.9 147.338 499.34 146.672 499.883 146.627C500.426 146.582 500.866 147.176 500.867 147.955V147.954Z" fill="#263238"/>
<path d="M511.064 146.326C510.958 146.327 510.854 146.285 510.779 146.199C509.616 144.86 508.142 145.147 508.125 145.15C507.907 145.194 507.703 145.048 507.675 144.82C507.648 144.592 507.804 144.37 508.025 144.325C508.103 144.309 509.952 143.947 511.395 145.61C511.538 145.776 511.517 146.043 511.347 146.205C511.265 146.283 511.164 146.324 511.064 146.326Z" fill="#263238"/>
<path d="M498.295 143.939C498.201 143.901 498.122 143.83 498.081 143.73C497.995 143.526 498.099 143.285 498.313 143.192C500.454 142.255 502.043 143.238 502.11 143.281C502.298 143.401 502.344 143.651 502.211 143.841C502.079 144.031 501.82 144.087 501.631 143.969C501.569 143.93 500.326 143.186 498.623 143.93C498.513 143.978 498.396 143.978 498.296 143.939H498.295Z" fill="#263238"/>
<path d="M499.342 136.186C501.271 132.514 508.581 129.376 516.629 133.413C528.687 138.3 521.852 158.498 518.368 154.264C517.42 153.113 516.629 151.977 515.969 150.89C512 144.357 506.273 139.156 499.368 136.196L499.342 136.186Z" fill="#263238"/>
<path d="M522.048 153.696C520.927 155.36 519.248 156.32 517.76 156.57C515.523 156.945 514.689 153.216 515.623 151.019C516.464 149.041 518.727 147.881 520.823 148.511C522.888 149.132 523.33 151.794 522.048 153.697V153.696Z" fill="#FDBBB5"/>
<path d="M503.26 147.408C503.26 147.408 501.704 150.489 500.079 152.352C499.796 152.678 499.912 153.2 500.297 153.385C501.286 153.861 502.512 153.615 502.512 153.615L503.261 147.408H503.26Z" fill="#EF7878"/>
<path d="M507.986 147.518L506.08 147.052C506.08 147.052 507.121 148.518 507.986 147.518Z" fill="#263238"/>
<path d="M500.162 146.649L498.232 146.301C499.127 147.415 499.902 146.989 500.162 146.649Z" fill="#263238"/>
<path opacity="0.2" d="M518.367 154.471C518.272 154.471 518.187 154.402 518.169 154.302C518.149 154.189 518.221 154.081 518.33 154.06C519.537 153.826 520.104 153.223 520.366 152.758C520.656 152.245 520.659 151.765 520.575 151.508C520.403 150.99 519.796 150.555 519.202 150.756C519.091 150.794 518.982 150.732 518.948 150.624C518.914 150.516 518.971 150.398 519.076 150.363C519.906 150.083 520.718 150.658 520.956 151.375C521.073 151.73 521.073 152.335 520.714 152.968C520.409 153.508 519.761 154.207 518.405 154.469C518.392 154.471 518.38 154.471 518.367 154.471Z" fill="black"/>
<path d="M501.619 156.368C502.197 157.341 502.875 159.216 502.875 159.216C503.05 159.183 503.227 159.15 503.4 159.108C505.773 158.605 506.713 157.562 507.034 156.56C507.208 156.012 507.19 155.469 507.122 155.039C507.047 154.54 506.884 154.202 506.884 154.202C505.78 155.244 503.603 155.89 502.426 156.184C501.935 156.313 501.62 156.369 501.62 156.369L501.619 156.368Z" fill="#263238"/>
<path d="M502.424 156.184L502.814 157.013C505.048 156.532 506.559 155.886 507.12 155.038C507.045 154.539 506.881 154.202 506.881 154.202C505.778 155.243 503.6 155.889 502.424 156.184Z" fill="white"/>
<path d="M503.397 159.108C505.771 158.605 506.71 157.562 507.032 156.56C506.23 156.764 505.284 157.102 504.504 157.658C503.905 158.081 503.582 158.607 503.397 159.108Z" fill="#FF4B4B"/>
<path d="M497.458 172.808C493.527 174.792 490.546 178.326 489.159 182.604C486.67 190.279 485.242 202.057 485.242 202.057L472.962 190.338L465.209 196.768C465.209 196.768 483.316 221.417 485.52 222.023C492.038 223.814 495.611 208.387 495.611 208.387L497.898 172.586L497.458 172.809V172.808Z" fill="#FFC100"/>
<path d="M533.343 373.607L532.495 374.825L530.812 374.077L529.763 379.425L522.662 389.648C522.662 389.648 519.96 390.093 522.089 384.285C522.185 384.021 522.263 383.73 522.313 383.405C522.946 379.931 521.555 373.269 521.555 373.269L525.451 367.66C525.451 367.66 525.857 367.667 526.549 367.784C528.163 368.062 531.39 368.873 533.344 373.605L533.343 373.607Z" fill="#FFC100"/>
<path opacity="0.2" d="M533.343 373.607L532.495 374.825L530.812 374.077L529.763 379.425L522.662 389.648C522.662 389.648 519.96 390.093 522.089 384.285C522.185 384.021 522.263 383.73 522.313 383.405C522.946 379.931 521.555 373.269 521.555 373.269L525.451 367.66C525.451 367.66 525.857 367.667 526.549 367.784C528.163 368.062 531.39 368.873 533.344 373.605L533.343 373.607Z" fill="black"/>
<path d="M526.547 367.786L526.563 367.799C525.254 367.943 526.403 373.931 525.876 377.29C525.402 380.287 524.148 383.114 522.312 383.407C522.944 379.932 520.664 372.014 520.664 372.014L523.798 367.504C523.798 367.504 525.856 367.669 526.547 367.786Z" fill="#EF7878"/>
<path d="M522.473 389.268L521.026 389.266L520.624 387.41L515.835 389.656H503.702C503.702 389.656 501.772 387.641 507.551 386.035C507.813 385.962 508.086 385.856 508.369 385.709C511.45 384.209 515.835 379.138 515.835 379.138H522.493C522.493 379.138 522.725 379.484 523.038 380.135C523.765 381.657 525.022 384.851 522.472 389.268L522.473 389.268Z" fill="#FFC100"/>
<path d="M523.038 380.137V380.157C522.159 379.139 518.159 383.611 515.229 385.133C512.612 386.488 509.672 387.085 508.369 385.711C511.45 384.21 516.343 377.316 516.343 377.316L521.692 377.484C521.692 377.484 522.724 379.486 523.037 380.138L523.038 380.137Z" fill="#FDBBB5"/>
<path d="M510.338 324.75C507.035 316.071 502.991 307.535 498.134 300.627C517.991 246.317 517.369 222.02 517.369 222.02L493.457 222.002L490.909 231.084C490.909 231.084 484.934 253.695 483.193 266.675L478.202 295.531V295.613C477.863 301.605 479.25 307.557 482.225 312.827C485.475 318.586 491.222 325.421 494.376 331.627C498.525 339.818 502.441 348.028 505.787 355.374C509.312 363.116 512.179 369.882 513.969 374.582C515.662 374.765 520.775 371.835 522.246 369.18C522.246 369.18 518.625 346.532 510.338 324.75Z" fill="#263238"/>
<path opacity="0.2" d="M503.662 289.531C506.575 279.552 509.836 273.866 511.318 266.455C511.331 264.725 505.753 257.32 502.913 254.337C502.913 254.337 499.496 268.489 503.662 289.531V289.531Z" fill="black"/>
<path opacity="0.2" d="M505.787 355.374C509.312 363.116 512.18 369.882 513.969 374.582C515.663 374.765 520.775 371.835 522.247 369.18C522.247 369.18 518.627 346.532 510.339 324.75C508.656 333.744 506.772 345.108 505.787 355.374Z" fill="black"/>
<path d="M499.495 222.516C499.495 222.516 508.596 282.507 509.655 296.013C509.655 296.013 515.277 361.531 514.27 377.999L526.809 378.58C526.809 378.58 535.244 328.956 530.979 297.111C530.608 292.959 534.493 265.884 535.107 255.098C536.584 229.149 525.54 222.02 525.54 222.02L499.494 222.516L499.495 222.516Z" fill="#263238"/>
<path opacity="0.2" d="M515.377 223.531L517.37 255.742L535.245 253.546V250.235L515.377 223.531Z" fill="black"/>
<path d="M524.023 224.337C524.722 216.165 527.537 201.19 532.385 185.463C533.961 180.349 531.287 174.576 531.287 174.576C531.287 174.576 524.69 174.4 524.023 174.322C523.292 174.234 522.541 174.157 521.79 174.092C516.127 173.608 511.491 173.256 506.441 173.553C505.171 173.63 503.869 173.74 502.589 173.85C502.176 173.894 499.496 173.936 499.094 173.98C499.094 173.98 491.834 182.734 491.442 188.915C491.23 192.369 489.612 193.855 489.791 202.114C489.823 207.723 493.773 215.895 494.133 223.78L524.023 224.337Z" fill="white"/>
<path d="M518.376 253.125L539.411 250.859L526.083 212.374C526.083 212.374 527.187 211.989 529.093 204.621C530.013 201.035 530.976 197.23 531.791 193.842C532.977 188.959 533.866 184.912 533.93 183.593C534.141 179.468 529.288 172.927 529.288 172.927L516.978 171.364C516.978 171.364 514.623 180.127 514.126 196.878C513.629 213.616 518.377 253.124 518.377 253.124L518.376 253.125Z" fill="#FFC100"/>
<path d="M506.357 170.395C506.357 170.395 495.775 183.554 493.177 193.049C491.468 199.293 494.838 217.282 494.445 222.042C493.798 229.885 490.435 239.485 486.078 253.546L483.195 253.124L491.134 222.002C491.134 222.002 487.461 198.55 488.438 192.682C489.415 186.814 497.901 172.585 497.901 172.585L501.774 172.31L506.357 170.395Z" fill="#FFC100"/>
<path d="M517.298 169.521C517.298 169.521 512.538 179.203 514.338 203.566L522.246 186.052L519.384 181.266L523.182 173.443C523.182 173.443 519.119 170.75 517.412 169.326L517.298 169.521Z" fill="#FFC100"/>
<path opacity="0.2" d="M527.559 202.63C527.909 203.553 528.448 204.192 529.094 204.62C530.014 201.034 530.978 197.23 531.793 193.842C529.654 191.158 527.844 188.915 527.844 188.915C527.844 188.915 525.378 196.866 527.558 202.629L527.559 202.63Z" fill="black"/>
<path d="M528.955 172.901C533.594 172.696 544.304 195.692 548.487 206.901C549.726 210.222 547 214.479 544.604 215.159C539.235 216.686 512.347 218.215 512.347 218.215L511.326 209.965L534.195 205.027L526.879 193.655C526.879 193.655 524.141 187.919 524.652 182.598C525.163 177.278 528.955 172.901 528.955 172.901Z" fill="#FFC100"/>
<g opacity="0.2">
<path d="M517.298 169.521C517.298 169.521 512.538 179.203 514.338 203.566L522.246 186.052L519.384 181.266L523.182 173.443C523.182 173.443 519.119 170.75 517.412 169.326L517.298 169.521Z" fill="black"/>
</g>
<path opacity="0.2" d="M534.195 205.028C534.195 205.028 537.582 204.487 539.733 206.334C539.733 206.334 537.414 202.51 533.254 203.565L534.195 205.027V205.028Z" fill="black"/>
<path d="M492.93 203.708C492.93 203.708 491.159 198.335 491.483 193.377C491.807 188.418 491.882 184.719 491.882 184.719L497.34 180.562L496.622 175.493C496.622 175.493 499.254 173.827 501.699 172.12C503.37 170.954 506.648 169.191 507.079 169.327C507.079 169.327 493.139 187.509 493.069 194.948C493.001 202.122 492.93 203.709 492.93 203.709V203.708Z" fill="#FFC100"/>
<path opacity="0.3" d="M492.93 203.708C492.93 203.708 491.159 198.335 491.483 193.377C491.807 188.418 491.882 184.719 491.882 184.719L497.34 180.562L496.622 175.493C496.622 175.493 499.254 173.827 501.699 172.12C503.37 170.954 506.648 169.191 507.079 169.327C507.079 169.327 493.139 187.509 493.069 194.948C493.001 202.122 492.93 203.709 492.93 203.709V203.708Z" fill="black"/>
<path opacity="0.3" d="M490.773 219.622L488.898 201.302V221.618C488.898 221.618 490.068 220.609 490.773 219.622Z" fill="black"/>
<path opacity="0.2" d="M514.945 218.06L527.741 217.16L528.497 219.34L515.177 221.088L514.945 218.06Z" fill="black"/>
<path d="M503.559 174.175L507.388 167.926L509.846 171.04L516.272 166.896L517.411 169.327L514.783 177.275C514.783 177.275 508.213 180.046 507.865 180.046C507.516 180.046 503.559 174.176 503.559 174.176L503.559 174.175Z" fill="white"/>
<path opacity="0.3" d="M503.387 174.423L504.921 178.334L508.735 174.423L511.33 179.015L515.206 177.058L511.074 180.43L508.684 175.399L504.31 179.644L503.387 174.423Z" fill="black"/>
<path d="M460.633 184.834C464.142 188.762 467.979 192.341 471.852 195.858C473.831 197.579 501.293 220.666 503.32 222.32L506.345 224.837C507.428 225.859 508.984 226.285 510.556 225.99C512.295 225.716 513.639 224.184 513.627 222.489C513.67 220.95 512.976 219.544 511.748 218.686L508.666 216.242C506.63 214.595 478.966 191.73 476.876 190.14C472.628 187.038 469.062 183.048 464.444 180.372C463.42 179.75 461.256 181.066 460.523 182.127C459.918 183.004 459.962 184.118 460.631 184.834H460.633Z" fill="#263238"/>
<g opacity="0.3">
<path d="M460.633 184.834C464.142 188.762 467.979 192.341 471.852 195.858C473.831 197.579 501.293 220.666 503.32 222.32L506.345 224.837C507.428 225.859 508.984 226.285 510.556 225.99C512.295 225.716 513.639 224.184 513.627 222.489C513.67 220.95 512.976 219.544 511.748 218.686L508.666 216.242C506.63 214.595 478.966 191.73 476.876 190.14C472.628 187.038 469.062 183.048 464.444 180.372C463.42 179.75 461.256 181.066 460.523 182.127C459.918 183.004 459.962 184.118 460.631 184.834H460.633Z" fill="white"/>
</g>
<path d="M441.177 135.666H433.33L433.569 167.9C433.569 167.9 444.752 168.57 446.248 157.648C447.743 146.725 444.22 138.683 441.177 135.666Z" fill="#FFC100"/>
<path d="M451.618 127.941C451.946 129.4 451.685 131.098 451.242 132.505C450.783 133.962 450.046 135.303 449.059 136.449C447.089 138.735 444.129 140.022 441.177 140.011C439.825 140.006 439.822 137.84 441.177 137.844C443.551 137.852 445.849 136.845 447.461 135.043C448.234 134.178 448.827 133.125 449.188 132.01C449.526 130.966 449.836 129.614 449.59 128.517C449.285 127.16 451.313 126.581 451.618 127.941Z" fill="#FFC100"/>
<path d="M458.618 148.135C454.248 146.16 449.046 146.601 444.989 149.143C443.83 149.869 442.772 147.996 443.927 147.272C448.676 144.296 454.611 143.973 459.679 146.264C460.203 146.501 460.313 147.28 460.056 147.747C459.749 148.303 459.134 148.369 458.617 148.135H458.618Z" fill="#FFC100"/>
<path d="M453.089 163.652C451.216 159.567 447.622 156.522 443.356 155.462C442.041 155.136 442.598 153.046 443.915 153.373C448.661 154.553 452.816 158.005 454.904 162.558C455.147 163.087 455.047 163.727 454.527 164.04C454.07 164.316 453.333 164.183 453.089 163.652Z" fill="#FFC100"/>
<path d="M423.42 135.666H431.267L431.028 167.9C431.028 167.9 419.845 168.57 418.349 157.648C416.854 146.725 420.377 138.683 423.42 135.666Z" fill="#FFC100"/>
<path d="M415.009 128.517C414.768 129.588 415.063 130.907 415.385 131.929C415.746 133.076 416.346 134.156 417.138 135.043C418.75 136.846 421.049 137.853 423.421 137.845C424.774 137.84 424.776 140.007 423.421 140.012C420.47 140.022 417.509 138.736 415.539 136.449C414.554 135.305 413.813 133.963 413.357 132.506C412.916 131.098 412.653 129.403 412.981 127.942C413.286 126.584 415.313 127.158 415.008 128.518L415.009 128.517Z" fill="#FFC100"/>
<path d="M404.92 146.264C409.988 143.973 415.923 144.297 420.671 147.272C421.826 147.995 420.77 149.87 419.61 149.143C415.552 146.601 410.35 146.16 405.98 148.135C405.457 148.372 404.858 148.289 404.542 147.747C404.276 147.289 404.4 146.499 404.919 146.264H404.92Z" fill="#FFC100"/>
<path d="M409.696 162.559C411.784 158.005 415.939 154.553 420.686 153.374C422.001 153.047 422.561 155.136 421.245 155.463C416.978 156.523 413.385 159.567 411.511 163.653C411.269 164.181 410.533 164.318 410.073 164.041C409.547 163.724 409.452 163.09 409.696 162.559Z" fill="#FFC100"/>
<path d="M440.694 133.989C440.635 134.172 439.682 125.984 432.671 125.984C425.66 125.984 423.82 133.992 423.82 133.992L440.694 133.989Z" fill="#FFC100"/>
<path d="M479.074 129.035C469.36 102.266 440.43 88.6813 414.456 98.6928C388.537 108.684 375.347 138.403 384.963 165.146C394.6 191.945 423.491 205.618 449.493 195.687C475.495 185.755 488.763 155.979 479.125 129.18C479.108 129.132 479.09 129.084 479.073 129.036L479.074 129.035ZM390.968 162.98L390.941 162.903C382.546 139.567 394.097 113.635 416.74 104.983C439.351 96.3771 464.456 108.253 472.866 131.534C481.291 154.859 469.775 180.806 447.145 189.49C424.513 198.173 399.337 186.304 390.911 162.98H390.969L390.968 162.98Z" fill="#263238"/>
<path opacity="0.3" d="M479.074 129.035C469.36 102.266 440.43 88.6813 414.456 98.6928C388.537 108.684 375.347 138.403 384.963 165.146C394.6 191.945 423.491 205.618 449.493 195.687C475.495 185.755 488.763 155.979 479.125 129.18C479.108 129.132 479.09 129.084 479.073 129.036L479.074 129.035ZM390.968 162.98L390.941 162.903C382.546 139.567 394.097 113.635 416.74 104.983C439.351 96.3771 464.456 108.253 472.866 131.534C481.291 154.859 469.775 180.806 447.145 189.49C424.513 198.173 399.337 186.304 390.911 162.98H390.969L390.968 162.98Z" fill="white"/>
<path d="M504.303 208.644L511.976 210.926L512.906 217.65C512.17 221.94 504.907 218.664 504.907 218.664L503.28 219.729C501.959 220.593 498.818 219.642 498.548 218.044L498.36 213.956C498.22 213.125 499.275 211.528 499.915 211.009L502.347 209.039C502.9 208.59 503.626 208.444 504.302 208.645L504.303 208.644Z" fill="#FDBBB5"/>
<path d="M465.206 189.862C465.206 189.862 469.776 188.243 471.156 188.866C472.537 189.488 470.856 190.871 470.856 190.871C470.856 190.871 472.796 189.467 473.486 190.235C474.314 191.157 472.547 192.598 472.547 192.598C472.547 192.598 474.177 191.518 474.746 192.244C475.336 192.997 473.454 194.769 473.454 194.769C473.454 194.769 474.741 194.232 474.859 194.967C474.978 195.702 471.053 199.543 469.19 199.846C467.326 200.149 462.725 194.779 461.956 193.395C461.186 192.011 461.582 190.03 463.087 187.729L465.205 189.861L465.206 189.862Z" fill="#FDBBB5"/>
<path opacity="0.2" d="M470.929 190.963L470.921 190.969L467.425 193.251C467.378 193.281 467.311 193.262 467.276 193.208C467.242 193.154 467.252 193.084 467.298 193.055L470.793 190.773C470.84 190.742 470.907 190.761 470.941 190.815C470.974 190.866 470.967 190.93 470.928 190.962L470.929 190.963Z" fill="black"/>
<path opacity="0.2" d="M472.528 192.765L472.525 192.767L469.337 195.233C469.293 195.267 469.226 195.253 469.188 195.202C469.149 195.15 469.155 195.094 469.199 195.046L472.387 192.579C472.432 192.545 472.499 192.559 472.536 192.611C472.574 192.662 472.57 192.73 472.528 192.765Z" fill="black"/>
<path opacity="0.2" d="M473.419 194.948L471.101 196.851C471.057 196.887 470.991 196.874 470.951 196.824C470.912 196.773 470.915 196.703 470.958 196.668L473.277 194.764C473.32 194.729 473.387 194.741 473.427 194.792C473.466 194.842 473.463 194.913 473.419 194.948Z" fill="black"/>
</svg>
