<svg width="170" height="66" viewBox="0 0 170 66" fill="none" xmlns="http://www.w3.org/2000/svg">
<path d="M13.8443 61.1913C12.2169 61.1913 10.7456 60.913 9.43034 60.3565C8.13736 59.7999 7.11191 58.9985 6.35396 57.9522C5.596 56.906 5.20589 55.6705 5.18359 54.2457H10.1994C10.2663 55.203 10.6007 55.9598 11.2026 56.5164C11.8268 57.0729 12.6739 57.3512 13.744 57.3512C14.8363 57.3512 15.6945 57.0951 16.3188 56.5832C16.943 56.0489 17.2551 55.3587 17.2551 54.5128C17.2551 53.8227 17.0433 53.255 16.6197 52.8098C16.1961 52.3646 15.6611 52.0195 15.0146 51.7747C14.3904 51.5075 13.521 51.2181 12.4064 50.9065C10.8905 50.4613 9.65327 50.0272 8.69468 49.6042C7.75839 49.159 6.94472 48.5022 6.25364 47.634C5.58486 46.7436 5.25047 45.5637 5.25047 44.0945C5.25047 42.7143 5.596 41.5122 6.28708 40.4881C6.97815 39.4641 7.94788 38.6849 9.19627 38.1507C10.4447 37.5941 11.8714 37.3159 13.4764 37.3159C15.8841 37.3159 17.8346 37.9058 19.3283 39.0856C20.8441 40.2433 21.6801 41.8683 21.8362 43.9609H16.6866C16.642 43.1595 16.2964 42.5027 15.65 41.9908C15.0258 41.4565 14.1898 41.1894 13.1421 41.1894C12.2281 41.1894 11.4924 41.4231 10.9351 41.8906C10.4001 42.3581 10.1326 43.037 10.1326 43.9275C10.1326 44.5509 10.3332 45.0739 10.7345 45.4969C11.158 45.8977 11.6707 46.2316 12.2726 46.4987C12.8969 46.7436 13.7663 47.033 14.8809 47.3669C16.3967 47.8121 17.634 48.2574 18.5926 48.7026C19.5512 49.1478 20.376 49.8156 21.0671 50.7061C21.7582 51.5966 22.1037 52.7654 22.1037 54.2123C22.1037 55.4589 21.7804 56.6165 21.134 57.6851C20.4875 58.7536 19.54 59.6108 18.2917 60.2563C17.0433 60.8797 15.5608 61.1913 13.8443 61.1913ZM43.3834 51.3072C43.3834 51.975 43.3388 52.5761 43.2497 53.1104H29.7069C29.8183 54.4461 30.2865 55.4923 31.1113 56.2492C31.9361 57.0062 32.9505 57.3846 34.1543 57.3846C35.8931 57.3846 37.1304 56.6388 37.866 55.1473H42.9153C42.3803 56.9282 41.3548 58.3974 39.8389 59.5551C38.3229 60.6904 36.4616 61.2581 34.2546 61.2581C32.4711 61.2581 30.866 60.8685 29.4394 60.0893C28.035 59.2879 26.9315 58.1637 26.1289 56.7167C25.3486 55.2698 24.9586 53.6002 24.9586 51.7079C24.9586 49.7934 25.3486 48.1126 26.1289 46.6657C26.9091 45.2187 28.0015 44.1056 29.406 43.3265C30.8104 42.5473 32.4266 42.1577 34.2546 42.1577C36.0156 42.1577 37.5873 42.5361 38.9695 43.2931C40.3739 44.05 41.4551 45.1296 42.2131 46.5321C42.9933 47.9123 43.3834 49.504 43.3834 51.3072ZM38.5348 49.9715C38.5125 48.7694 38.0778 47.8121 37.2307 47.0998C36.3835 46.3651 35.3469 45.9978 34.1208 45.9978C32.9616 45.9978 31.9808 46.3541 31.1782 47.0664C30.3979 47.7565 29.9186 48.7249 29.7403 49.9715H38.5348ZM45.5967 51.6411C45.5967 49.7711 45.9645 48.1126 46.7002 46.6657C47.458 45.2187 48.4724 44.1056 49.7431 43.3265C51.036 42.5473 52.4739 42.1577 54.0567 42.1577C55.4388 42.1577 56.6426 42.436 57.6681 42.9925C58.7159 43.5491 59.5518 44.2503 60.1761 45.0962V42.4583H64.891V60.9575H60.1761V58.2528C59.5742 59.121 58.7382 59.8445 57.6681 60.4233C56.6203 60.9798 55.4054 61.2581 54.0233 61.2581C52.4628 61.2581 51.036 60.8574 49.7431 60.0559C48.4724 59.2545 47.458 58.1303 46.7002 56.6833C45.9645 55.2141 45.5967 53.5334 45.5967 51.6411ZM60.1761 51.7079C60.1761 50.5726 59.9531 49.6042 59.5073 48.8028C59.0614 47.9791 58.4595 47.3558 57.7016 46.9328C56.9436 46.4876 56.13 46.265 55.2605 46.265C54.3911 46.265 53.5886 46.4764 52.8529 46.8994C52.1173 47.3224 51.5154 47.9457 51.0472 48.7694C50.6013 49.5708 50.3785 50.5281 50.3785 51.6411C50.3785 52.7541 50.6013 53.7337 51.0472 54.5796C51.5154 55.4033 52.1173 56.0378 52.8529 56.483C53.6108 56.9282 54.4133 57.1508 55.2605 57.1508C56.13 57.1508 56.9436 56.9394 57.7016 56.5164C58.4595 56.0712 59.0614 55.4478 59.5073 54.6464C59.9531 53.8227 60.1761 52.8432 60.1761 51.7079ZM74.1446 45.33C74.7465 44.3505 75.5268 43.5825 76.4853 43.0259C77.4662 42.4694 78.5808 42.1911 79.8292 42.1911V47.0998H78.5919C77.1206 47.0998 76.006 47.4448 75.2481 48.1349C74.5124 48.8251 74.1446 50.0272 74.1446 51.7413V60.9575H69.4631V42.4583H74.1446V45.33ZM81.7786 51.7079C81.7786 49.7934 82.1688 48.1238 82.949 46.6991C83.7292 45.2521 84.8105 44.139 86.1926 43.3598C87.5747 42.5584 89.1575 42.1577 90.9409 42.1577C93.2371 42.1577 95.1319 42.7365 96.6255 43.8941C98.1414 45.0295 99.1558 46.6323 99.6685 48.7026H94.6192C94.3517 47.9012 93.8946 47.2778 93.2482 46.8326C92.624 46.3651 91.8438 46.1314 90.9075 46.1314C89.5699 46.1314 88.511 46.6212 87.7308 47.6007C86.9506 48.5579 86.5604 49.927 86.5604 51.7079C86.5604 53.4666 86.9506 54.8357 87.7308 55.8151C88.511 56.7724 89.5699 57.251 90.9075 57.251C92.8024 57.251 94.0396 56.4051 94.6192 54.7132H99.6685C99.1558 56.7167 98.1414 58.3085 96.6255 59.4883C95.1097 60.6681 93.2148 61.2581 90.9409 61.2581C89.1575 61.2581 87.5747 60.8685 86.1926 60.0893C84.8105 59.2879 83.7292 58.1749 82.949 56.7501C82.1688 55.3032 81.7786 53.6223 81.7786 51.7079ZM113.53 42.1911C114.935 42.1911 116.184 42.5027 117.276 43.1261C118.369 43.7272 119.215 44.6288 119.818 45.8309C120.442 47.0107 120.754 48.4355 120.754 50.1051V60.9575H116.072V50.7395C116.072 49.2703 115.704 48.146 114.969 47.3669C114.233 46.5655 113.23 46.1648 111.959 46.1648C110.666 46.1648 109.641 46.5655 108.883 47.3669C108.147 48.146 107.78 49.2703 107.78 50.7395V60.9575H103.098V36.2473H107.78V44.7623C108.381 43.9609 109.184 43.3376 110.187 42.8924C111.19 42.4249 112.305 42.1911 113.53 42.1911Z" fill="white"/>
<path d="M126.75 10.1316C125.66 15.1075 126.138 19.3983 127.555 23.0796C130.93 26.8788 135.511 29.5394 140.269 32.1118C138.658 30.5358 137.131 28.977 135.803 27.3833H143.564C144.129 26.7202 144.657 26.0537 145.14 25.3836H134.268C133.742 24.6308 133.268 23.8662 132.858 23.0829C132.642 22.6713 132.441 22.252 132.256 21.8255H147.215C147.505 21.1741 147.75 20.5126 147.946 19.8258H131.538C131.171 18.5245 130.971 17.1369 130.983 15.6056H148.458C148.439 14.9691 148.383 14.3035 148.282 13.6024H131.113C131.241 12.5224 131.463 11.3696 131.797 10.1315L126.75 10.1316ZM149.734 10.1316C150.802 14.0734 150.758 17.1342 149.998 19.8259H149.981C149.639 21.2534 149.113 22.5784 148.452 23.8419C146.78 27.0344 144.175 29.8556 141.313 32.6736C142.669 33.4018 144.033 34.1296 145.383 34.8806C148.226 32.0805 151 29.0824 152.94 25.3769C155.117 21.2174 156.113 16.18 154.788 10.1315L149.734 10.1316ZM136.01 37.2916C133.846 39.5615 131.813 42.0368 130.271 44.9631C128.002 49.2712 126.961 54.5894 128.203 60.9573H133.057C132.522 58.5871 132.368 56.3725 132.522 54.3228C132.571 53.5237 132.669 52.7598 132.815 52.0255H132.832C132.965 51.3498 133.136 50.6821 133.344 50.0256C133.346 50.018 133.348 50.01 133.35 50.0024C133.664 49.0114 134.063 48.0491 134.541 47.1265C136.132 44.0521 138.356 41.6326 140.552 39.4418C139.051 38.7205 137.526 38.0158 136.01 37.2916ZM141.074 39.6961C142.61 41.253 144.039 42.8202 145.242 44.4647H138.667C138.156 45.1048 137.673 45.7697 137.227 46.4644H146.563C146.717 46.7266 146.864 46.993 147.005 47.2603C147.472 48.1471 147.872 49.0635 148.191 50.0258H135.438C135.206 50.6656 135.012 51.3332 134.856 52.0257H148.721C148.979 53.3284 149.096 54.7234 149.033 56.2458H134.448C134.462 56.8931 134.509 57.5599 134.594 58.2455H148.857C148.743 59.1082 148.575 60.0107 148.352 60.9576H153.333C154.346 55.755 153.837 51.2538 152.378 47.4309C149.352 44.0229 145.327 41.7627 141.074 39.6963V39.6961Z" fill="white"/>
<path d="M6.125 24.6296C6.125 22.2988 6.60751 20.2258 7.57253 18.4105C8.55998 16.5729 9.9514 15.1498 11.7468 14.1413C13.5422 13.1104 15.6068 12.5949 17.9408 12.5949C20.9032 12.5949 23.3943 13.3905 25.4141 14.9817C27.4339 16.5504 28.7356 18.6907 29.3191 21.4024H22.2161C21.7897 20.506 21.195 19.8224 20.4319 19.3518C19.6913 18.8812 18.8273 18.6459 17.8399 18.6459C16.3138 18.6459 15.0907 19.1949 14.1705 20.2931C13.2729 21.3688 12.824 22.8143 12.824 24.6296C12.824 26.4673 13.2729 27.9352 14.1705 29.0333C15.0907 30.109 16.3138 30.6469 17.8399 30.6469C18.8273 30.6469 19.6913 30.4116 20.4319 29.9409C21.195 29.4703 21.7897 28.7868 22.2161 27.8903H29.3191C28.7356 30.6021 27.4339 32.7535 25.4141 34.3447C23.3943 35.9134 20.9032 36.6978 17.9408 36.6978C15.6068 36.6978 13.5422 36.1936 11.7468 35.1851C9.9514 34.1542 8.55998 32.7311 7.57253 30.9158C6.60751 29.0781 6.125 26.9827 6.125 24.6296ZM69.3595 30.9158V36.5297H66.4981C61.673 36.5297 59.2605 34.143 59.2605 29.3695V23.1504H56.9377V17.671H59.2605V13.0992H65.8922V17.671H69.3258V23.1504H65.8922V29.4703C65.8922 29.9858 66.0044 30.3555 66.2288 30.5796C66.4757 30.8038 66.8796 30.9158 67.4407 30.9158H69.3595ZM87.5344 24.3606C88.9258 24.6744 90.0254 25.3691 90.8334 26.4448C91.6637 27.4982 92.0789 28.7083 92.0789 30.0754C92.0789 32.0924 91.3832 33.6723 89.9918 34.8153C88.6004 35.9583 86.6479 36.5297 84.1344 36.5297H72.3858V12.8302H83.7641C86.1878 12.8302 88.0842 13.3681 89.4532 14.4438C90.8446 15.5195 91.5403 17.0323 91.5403 18.982C91.5403 20.3715 91.17 21.5369 90.4294 22.4781C89.7113 23.397 88.7462 24.0245 87.5344 24.3606ZM78.9839 22.2428H82.3165C83.9773 22.2428 84.8076 21.5593 84.8076 20.1922C84.8076 18.7803 83.9773 18.0744 82.3165 18.0744H78.9839V22.2428ZM82.8215 31.2184C84.4822 31.2184 85.3126 30.5236 85.3126 29.1341C85.3126 28.417 85.0882 27.8679 84.6393 27.4869C84.2129 27.106 83.5957 26.9155 82.7878 26.9155H78.9839V31.2184H82.8215ZM98.3032 15.9229C97.1362 15.9229 96.1936 15.6092 95.4754 14.9817C94.7797 14.3318 94.4319 13.525 94.4319 12.5613C94.4319 11.5752 94.7797 10.7572 95.4754 10.1073C96.1936 9.4574 97.1362 9.13245 98.3032 9.13245C99.4477 9.13245 100.368 9.4574 101.064 10.1073C101.782 10.7572 102.141 11.5752 102.141 12.5613C102.141 13.525 101.782 14.3318 101.064 14.9817C100.368 15.6092 99.4477 15.9229 98.3032 15.9229ZM101.569 17.671V36.5297H94.9705V17.671H101.569ZM114.113 36.765C112.227 36.765 110.533 36.3729 109.029 35.5885C107.548 34.8041 106.381 33.6836 105.528 32.2268C104.675 30.7701 104.249 29.0557 104.249 27.0836C104.249 25.1338 104.675 23.4306 105.528 21.9739C106.403 20.5172 107.581 19.3966 109.063 18.6122C110.566 17.8279 112.261 17.4357 114.146 17.4357C116.031 17.4357 117.715 17.8279 119.196 18.6122C120.699 19.3966 121.878 20.5172 122.73 21.9739C123.606 23.4306 124.043 25.1338 124.043 27.0836C124.043 29.0333 123.606 30.7477 122.73 32.2268C121.878 33.6836 120.699 34.8041 119.196 35.5885C117.692 36.3729 115.998 36.765 114.113 36.765ZM114.113 31.0503C115.033 31.0503 115.796 30.7141 116.402 30.0418C117.03 29.347 117.344 28.361 117.344 27.0836C117.344 25.8061 117.03 24.8313 116.402 24.1589C115.796 23.4866 115.044 23.1504 114.146 23.1504C113.249 23.1504 112.497 23.4866 111.89 24.1589C111.284 24.8313 110.981 25.8061 110.981 27.0836C110.981 28.3834 111.273 29.3695 111.857 30.0418C112.441 30.7141 113.192 31.0503 114.113 31.0503Z" fill="white"/>
<path fill-rule="evenodd" clip-rule="evenodd" d="M43.2865 19.002C41.3282 19.002 41.1323 19.2094 40.1189 19.2094C39.2747 19.2094 36.7395 17.1443 35.4732 17.1443C34.2057 17.1443 32.7276 17.8882 32.7276 20.0353V22.5128C32.7303 23.1628 32.9658 25.1554 33.892 24.6229C32.7977 25.9151 32.688 27.4227 32.7025 28.8814C32.4075 28.966 32.1071 29.0625 31.8147 29.1616C30.9097 29.4707 29.949 29.8645 29.5164 30.1446C29.2953 30.2873 29.14 30.5117 29.0847 30.7688C29.0294 31.0257 29.0785 31.2941 29.2212 31.5148C29.3641 31.7356 29.589 31.8906 29.8463 31.9459C30.1036 32.0012 30.3723 31.9522 30.5934 31.8095C30.7998 31.6761 31.5474 31.3471 32.4564 31.0366L32.7581 30.9374C32.819 31.5095 32.9711 32.0341 33.1973 32.5097L33.1656 32.527C32.6231 32.8124 32.1203 33.1414 31.8001 33.3501L31.6506 33.4479C31.4296 33.5905 31.2743 33.8151 31.2189 34.072C31.1636 34.3289 31.2128 34.5973 31.3555 34.8181C31.4983 35.0389 31.7232 35.1939 31.9805 35.2492C32.2378 35.3045 32.5066 35.2554 32.7276 35.1128L32.901 34.9991C33.2252 34.7877 33.6407 34.5169 34.0931 34.279C34.199 34.2222 34.3009 34.172 34.3988 34.1257C36.6879 36.2702 40.799 36.9639 43.2865 36.9639C45.774 36.9639 49.885 36.2702 52.174 34.1257C52.272 34.172 52.3725 34.2222 52.4797 34.279C52.9323 34.5169 53.3478 34.7877 53.6719 34.9991L53.8452 35.1128C54.0664 35.2554 54.3351 35.3045 54.5924 35.2492C54.8497 35.1939 55.0745 35.0389 55.2173 34.8181C55.3602 34.5973 55.4093 34.3289 55.354 34.072C55.2987 33.8151 55.1434 33.5905 54.9223 33.4479L54.7727 33.3501C54.3306 33.0548 53.8749 32.7801 53.4072 32.527L53.3755 32.5097C53.6018 32.0341 53.754 31.5095 53.8148 30.9374L54.1165 31.0366C55.0256 31.3471 55.7731 31.6761 55.9808 31.8095C56.2018 31.9441 56.4667 31.9872 56.719 31.9295C56.9714 31.8718 57.1911 31.718 57.3315 31.5008C57.4719 31.2835 57.5217 31.0202 57.4703 30.7668C57.4189 30.5135 57.2705 30.2902 57.0566 30.1446C56.6239 29.8645 55.6633 29.4707 54.7595 29.1616C54.4652 29.0614 54.1687 28.9676 53.8703 28.8802C53.8863 27.4215 53.7751 25.9151 52.6796 24.6229C53.6057 25.1554 53.844 23.1628 53.8452 22.5115V20.0353C53.8452 17.8882 52.3673 17.1443 51.0997 17.1443C49.8334 17.1443 47.2982 19.2094 46.4554 19.2094C45.4406 19.2094 45.2448 19.002 43.2865 19.002ZM42.3933 31.1502C42.6606 31.059 42.9769 31.0181 43.2865 31.0181C43.5961 31.0181 43.9123 31.059 44.1809 31.1502C44.3132 31.1951 44.472 31.2664 44.6149 31.38C44.7129 31.4538 44.793 31.5486 44.8493 31.6576C44.9057 31.7664 44.9368 31.8865 44.9403 32.009C44.9403 32.3129 44.7564 32.5243 44.6149 32.6379C44.4733 32.7516 44.3119 32.8229 44.1809 32.8679C43.8917 32.9592 43.5898 33.0038 43.2865 33C42.9836 33.0039 42.682 32.9593 42.3933 32.8679C42.2359 32.817 42.0886 32.7392 41.958 32.6379C41.86 32.5642 41.7799 32.4693 41.7236 32.3605C41.6673 32.2516 41.6361 32.1314 41.6325 32.009C41.6325 31.7051 41.8164 31.4937 41.958 31.38C42.0996 31.2664 42.2623 31.1951 42.3933 31.1502ZM46.1577 27.0541C46.3389 26.7528 46.6949 26.3935 47.2295 26.3935C47.764 26.3935 48.1213 26.7528 48.3012 27.0541C48.4891 27.3699 48.5791 27.7505 48.5791 28.1283C48.5791 28.5049 48.4891 28.8855 48.3012 29.1999C48.1213 29.5024 47.764 29.8619 47.2295 29.8619C46.6949 29.8619 46.3389 29.5024 46.1577 29.2012C45.9707 28.8744 45.8747 28.5035 45.8799 28.127C45.8799 27.7505 45.9698 27.3699 46.1577 27.0554V27.0541ZM38.2716 27.0541C38.453 26.7528 38.8089 26.3935 39.3435 26.3935C39.8781 26.3935 40.2352 26.7528 40.4152 27.0541C40.603 27.3699 40.693 27.7505 40.693 28.1283C40.693 28.5049 40.603 28.8855 40.4152 29.1999C40.2352 29.5024 39.8781 29.8619 39.3435 29.8619C38.8089 29.8619 38.453 29.5024 38.2716 29.2012C38.0847 28.8744 37.9887 28.5035 37.9938 28.127C37.9938 27.7505 38.0838 27.3699 38.2716 27.0554V27.0541Z" fill="white"/>
</svg>
